<svg xmlns="http://www.w3.org/2000/svg" width="33" height="33" fill="none"><path fill="#0059FF" fill-rule="evenodd" d="M16.5 2.75C8.903 2.75 2.75 8.903 2.75 16.5c0 6.084 3.936 11.223 9.402 13.045.687.12.945-.292.945-.653 0-.326-.017-1.41-.017-2.56-3.455.635-4.349-.843-4.624-1.616-.154-.396-.825-1.616-1.41-1.943-.48-.257-1.168-.893-.016-.91 1.083-.018 1.856.996 2.114 1.409 1.237 2.08 3.214 1.495 4.004 1.134.12-.893.482-1.495.877-1.839-3.06-.344-6.256-1.53-6.256-6.789 0-1.495.533-2.733 1.41-3.695-.138-.344-.62-1.753.137-3.644 0 0 1.151-.36 3.78 1.41 1.1-.31 2.27-.465 3.438-.465 1.17 0 2.338.155 3.438.464 2.63-1.787 3.781-1.409 3.781-1.409.756 1.89.275 3.3.138 3.644.876.962 1.409 2.183 1.409 3.695 0 5.277-3.214 6.445-6.273 6.79.498.429.928 1.254.928 2.543 0 1.839-.017 3.317-.017 3.781 0 .361.257.79.945.653A13.773 13.773 0 0 0 30.25 16.5c0-7.597-6.153-13.75-13.75-13.75z" clip-rule="evenodd"/></svg>