<svg xmlns="http://www.w3.org/2000/svg" width="161" height="40" fill="none"><path fill="#fff" fill-rule="evenodd" d="M15.896 2.047 14.07.108c3.157-.407 11.49.115 19.555 5.458.105.738.082 1.474.082 1.474l.594.322.004.005.001-.008.012.008c.333.572.67 1.426.886 2.43.26 1.216.334 2.616.03 3.954a9.395 9.395 0 0 1-1.455 3.276 7.153 7.153 0 0 1-1.084 1.252c-1.03.022-2.948.713-3.497 3.11-1.652.945-4.246 1.89-7.672 1.89-3.273 0-6.611-.947-9.121-2.783-2.5-1.83-4.178-4.536-4.178-8.1 0-2.835 1.27-5.05 2.88-6.679 1.617-1.634 3.826-2.958 5.107-3.397l-.318-.273zm14.153 4.65c-.635.693-1.228 1.025-1.398 1.115-3.708-.826-5.044-2.834-5.044-2.834 3.498-.022 6.655.848 8.964 2.321 0 0-1.25-.424-2.522-.602z" clip-rule="evenodd"/><path fill="#fff" d="M14.018 2.583C6.068 4.184 0 11.346 0 20.005 0 30.954 9.24 40 20.638 40c8.51 0 15.596-5.212 19.3-12.185-4.927 1.17-10.809-.91-10.846-5.459-1.774.913-4.327 1.724-7.566 1.724-3.413 0-6.924-.986-9.592-2.938-2.678-1.96-4.506-4.895-4.506-8.746 0-3.097 1.394-5.504 3.112-7.242.995-.996 2.358-1.94 3.478-2.571zM35.985 9.63a10.8 10.8 0 0 0-.402-1.41c2.137 1.6 3.801 3.782 3.663 6.824-.2 4.38-2.842 6.105-4.534 6.392.812-1.365.135-2.227-.135-2.514a2.003 2.003 0 0 0-.87-.522c.23-.253.48-.56.727-.915a10.197 10.197 0 0 0 1.58-3.556c.335-1.478.25-2.999-.03-4.299zm79.106.633c2.924 0 4.761.828 6.501 2.313l-1.885 2.265c-1.305-1.12-2.61-1.802-4.737-1.802-3.093 0-5.486 2.728-5.486 5.99l.002.204c.066 3.428 2.345 5.934 5.75 5.934 1.619 0 3.045-.512 4.084-1.291V20.71l2.876-2.63v7.16c-1.692 1.436-4.06 2.654-7.057 2.654-5.292 0-8.772-3.799-8.772-8.767l.001-.204c.077-4.705 3.655-8.66 8.723-8.66zm19.139 0c5.196 0 8.821 3.97 8.821 8.767l-.001.202c-.078 4.706-3.728 8.662-8.868 8.662-5.196 0-8.821-3.97-8.821-8.767l.001-.202c.078-4.706 3.728-8.662 8.868-8.662zm-74.917.17 7.444 17.169H63.73l-5.844-13.589-5.8 13.589h-2.972l7.443-17.169h2.755zm38.338 0 7.444 17.169h-3.026l-5.844-13.589-5.8 13.589h-2.972l7.443-17.169h2.755zm51.362.122 9.063 11.787V10.555H161v17.047h-2.489l-9.328-12.128v12.128h-2.925V10.555h2.755zm-14.831 2.484c-3.359 0-5.704 2.679-5.704 5.99l.002.195c.068 3.246 2.416 5.894 5.75 5.894 3.359 0 5.703-2.679 5.703-5.99l-.001-.195c-.069-3.246-2.417-5.894-5.75-5.894zm-56.285-2.776c2.13 0 3.801.644 4.89 1.733.897.965 1.405 2.228 1.405 3.738v.142c-.036 2.73-1.624 4.395-3.867 5.108l-.152.047 4.576 6.56h-3.535l-4.165-6.04h-2.186l1.534-2.699h1.282c2.082 0 3.424-1.063 3.484-2.775l.002-.12v-.116c-.03-1.839-1.31-2.806-3.51-2.806H73.32v5.357h-.003v3.864l.003-.002v5.337h-2.978V10.263h7.555z"/></svg>