<svg xmlns="http://www.w3.org/2000/svg" width="30" height="30" fill="none"><path fill="#0059FF" d="M25.397 4.906a24.605 24.605 0 0 0-6.106-1.904.09.09 0 0 0-.098.046 17.23 17.23 0 0 0-.76 1.571 22.732 22.732 0 0 0-6.859 0c-.205-.495-.508-1.1-.773-1.57a.096.096 0 0 0-.097-.047 24.625 24.625 0 0 0-6.107 1.904.094.094 0 0 0-.04.035C.666 10.785-.4 16.485.123 22.115a.101.101 0 0 0 .04.07 24.82 24.82 0 0 0 7.492 3.81.096.096 0 0 0 .104-.036 17.874 17.874 0 0 0 1.533-2.507.097.097 0 0 0-.052-.133 16.474 16.474 0 0 1-2.34-1.122.098.098 0 0 1-.011-.16c.157-.12.314-.242.464-.367a.092.092 0 0 1 .098-.013c4.91 2.255 10.226 2.255 15.078 0a.091.091 0 0 1 .097.012c.15.124.307.249.466.367a.098.098 0 0 1-.009.161c-.746.44-1.524.811-2.342 1.122a.096.096 0 0 0-.05.134 20.33 20.33 0 0 0 1.53 2.506.094.094 0 0 0 .105.037 24.741 24.741 0 0 0 7.504-3.809.101.101 0 0 0 .04-.069c.626-6.508-1.048-12.162-4.436-17.174a.08.08 0 0 0-.039-.036l.001-.002zm-15.373 13.78c-1.479 0-2.696-1.363-2.696-3.04 0-1.676 1.195-3.04 2.696-3.04 1.5 0 2.72 1.377 2.696 3.04 0 1.677-1.195 3.04-2.696 3.04zm9.97 0c-1.479 0-2.696-1.363-2.696-3.04 0-1.676 1.195-3.04 2.696-3.04 1.5 0 2.72 1.377 2.696 3.04 0 1.677-1.182 3.04-2.696 3.04z"/></svg>