<svg xmlns="http://www.w3.org/2000/svg" width="25" height="25" fill="none"><path fill="#0059FF" d="M.877 4.948C.29 4.397 0 3.715 0 2.903 0 2.092.293 1.38.877.827 1.462.277 2.216 0 3.139 0S4.786.276 5.37.827c.586.551.877 1.244.877 2.076 0 .832-.293 1.494-.877 2.045-.585.55-1.328.827-2.231.827-.903 0-1.677-.276-2.262-.827zm4.878 3.16V25H.49V8.108h5.265zm17.527 1.669c1.147 1.263 1.72 2.997 1.72 5.204v9.721h-5v-9.036c0-1.113-.284-1.978-.853-2.594-.568-.616-1.334-.925-2.293-.925-.96 0-1.726.308-2.294.925-.568.616-.853 1.48-.853 2.594v9.036h-5.03V8.062h5.03v2.206c.51-.735 1.196-1.316 2.058-1.744.863-.428 1.833-.641 2.912-.641 1.922 0 3.457.631 4.603 1.893v.001z"/></svg>