<svg xmlns="http://www.w3.org/2000/svg" width="914" height="503" fill="none"><path fill="#000" d="M73.504 489.273V498H71.66v-6.976h-.051l-1.999 1.253v-1.636l2.16-1.368h1.735zm5.871 0V498H77.53v-6.976h-.051l-1.998 1.253v-1.636l2.16-1.368h1.734zm12.203 0V498h-1.594l-3.797-5.493h-.064V498h-1.845v-8.727h1.62l3.766 5.488h.077v-5.488h1.837zm4.448 8.855c-.662 0-1.235-.141-1.718-.422a2.886 2.886 0 0 1-1.112-1.185c-.261-.508-.392-1.098-.392-1.768 0-.676.13-1.267.392-1.773a2.861 2.861 0 0 1 1.112-1.185c.483-.284 1.056-.426 1.718-.426.662 0 1.233.142 1.713.426a2.85 2.85 0 0 1 1.116 1.185c.261.506.392 1.097.392 1.773 0 .67-.13 1.26-.392 1.768a2.876 2.876 0 0 1-1.116 1.185c-.48.281-1.052.422-1.713.422zm.008-1.406c.301 0 .553-.086.754-.256a1.58 1.58 0 0 0 .456-.707 3.06 3.06 0 0 0 .158-1.019c0-.381-.053-.72-.158-1.018a1.582 1.582 0 0 0-.456-.708 1.119 1.119 0 0 0-.754-.26c-.304 0-.56.087-.767.26a1.59 1.59 0 0 0-.464.708 3.126 3.126 0 0 0-.154 1.018c0 .381.051.72.154 1.019a1.6 1.6 0 0 0 .464.707c.207.17.463.256.767.256zm10.285-5.267L104.031 498h-2.046l-2.288-6.545h1.917l1.36 4.683h.068l1.355-4.683h1.922zM8.972 424.273V433H7.915v-7.619h-.051l-2.131 1.414v-1.073l2.182-1.449h1.057zm5.356 8.846c-.642 0-1.189-.174-1.64-.524-.452-.352-.797-.862-1.036-1.53-.239-.67-.358-1.48-.358-2.429 0-.943.12-1.748.358-2.416.242-.67.588-1.182 1.04-1.534.454-.355 1-.533 1.636-.533.636 0 1.18.178 1.632.533.455.352.801.864 1.04 1.534.241.668.362 1.473.362 2.416 0 .949-.12 1.759-.358 2.429-.238.668-.584 1.178-1.035 1.53-.452.35-.999.524-1.64.524zm0-.937c.636 0 1.13-.307 1.483-.921.352-.613.529-1.488.529-2.625 0-.755-.081-1.399-.243-1.93-.16-.531-.39-.936-.69-1.215a1.525 1.525 0 0 0-1.079-.417c-.63 0-1.123.311-1.479.933-.355.619-.532 1.496-.532 2.629 0 .756.08 1.398.238 1.926.16.529.388.931.687 1.206.3.276.663.414 1.086.414zm7.5.937c-.642 0-1.189-.174-1.64-.524-.452-.352-.797-.862-1.036-1.53-.239-.67-.358-1.48-.358-2.429 0-.943.12-1.748.358-2.416.241-.67.588-1.182 1.04-1.534.454-.355 1-.533 1.636-.533.637 0 1.18.178 1.632.533.455.352.801.864 1.04 1.534.241.668.362 1.473.362 2.416 0 .949-.12 1.759-.358 2.429-.238.668-.584 1.178-1.035 1.53-.452.35-.999.524-1.64.524zm0-.937c.637 0 1.13-.307 1.483-.921.352-.613.529-1.488.529-2.625 0-.755-.081-1.399-.243-1.93-.16-.531-.39-.936-.69-1.215a1.525 1.525 0 0 0-1.079-.417c-.63 0-1.123.311-1.479.933-.355.619-.532 1.496-.532 2.629 0 .756.08 1.398.238 1.926.16.529.388.931.686 1.206.302.276.664.414 1.087.414zm4.807-7.909h1.261l2.966 7.244h.103l2.965-7.244h1.262V433h-.989v-6.631h-.085L31.39 433h-.955l-2.727-6.631h-.085V433h-.99v-8.727zM5.699 394.21v-.869l3.835-6.068h.63v1.346H9.74l-2.898 4.586v.068h5.165v.937H5.699zM9.807 396v-8.727h1.005V396H9.808zm6.642.119c-.642 0-1.189-.174-1.64-.524-.452-.352-.797-.862-1.036-1.53-.239-.67-.358-1.48-.358-2.429 0-.943.12-1.748.358-2.416.242-.67.588-1.182 1.04-1.534.454-.355 1-.533 1.636-.533.637 0 1.18.178 1.632.533.455.352.802.864 1.04 1.534.242.668.362 1.473.362 2.416 0 .949-.119 1.759-.358 2.429-.238.668-.584 1.178-1.035 1.53-.452.35-.999.524-1.64.524zm0-.937c.637 0 1.13-.307 1.483-.921.352-.613.529-1.488.529-2.625 0-.755-.081-1.399-.243-1.93-.16-.531-.39-.936-.69-1.215a1.525 1.525 0 0 0-1.079-.417c-.63 0-1.123.311-1.479.933-.355.619-.532 1.496-.532 2.629 0 .756.08 1.398.239 1.926.159.529.387.931.686 1.206.3.276.663.414 1.086.414zm7.5.937c-.642 0-1.189-.174-1.64-.524-.452-.352-.797-.862-1.036-1.53-.239-.67-.358-1.48-.358-2.429 0-.943.12-1.748.358-2.416.242-.67.588-1.182 1.04-1.534.454-.355 1-.533 1.636-.533.637 0 1.18.178 1.632.533.455.352.802.864 1.04 1.534.242.668.362 1.473.362 2.416 0 .949-.119 1.759-.358 2.429-.238.668-.584 1.178-1.035 1.53-.452.35-.999.524-1.64.524zm0-.937c.637 0 1.13-.307 1.483-.921.352-.613.529-1.488.529-2.625 0-.755-.081-1.399-.243-1.93-.16-.531-.39-.936-.69-1.215a1.525 1.525 0 0 0-1.079-.417c-.63 0-1.123.311-1.479.933-.355.619-.532 1.496-.532 2.629 0 .756.08 1.398.239 1.926.159.529.387.931.686 1.206.3.276.663.414 1.086.414zm4.807-7.909h1.261l2.966 7.244h.103l2.965-7.244h1.262V396h-.989v-6.631h-.085L33.512 396h-.955l-2.727-6.631h-.085V396h-.989v-8.727zM8.699 362.119c-.585 0-1.102-.103-1.551-.311a2.535 2.535 0 0 1-1.044-.865 2.173 2.173 0 0 1-.371-1.261 2.32 2.32 0 0 1 .822-1.811 1.86 1.86 0 0 1 .865-.405v-.051a1.688 1.688 0 0 1-.997-.703 2.13 2.13 0 0 1-.366-1.24c-.003-.444.11-.84.336-1.189.228-.35.54-.625.938-.827.4-.202.856-.303 1.368-.303.506 0 .957.101 1.355.303.398.202.71.477.938.827.23.349.346.745.349 1.189-.003.463-.13.876-.38 1.24-.247.36-.575.595-.984.703v.051c.316.057.6.192.852.405a2.37 2.37 0 0 1 .835 1.811c-.002.471-.13.892-.383 1.261-.25.367-.598.655-1.044.865-.443.208-.956.311-1.538.311zm0-.937c.395 0 .736-.064 1.023-.192a1.52 1.52 0 0 0 .664-.541 1.46 1.46 0 0 0 .239-.818 1.57 1.57 0 0 0-.256-.874 1.725 1.725 0 0 0-.686-.596 2.153 2.153 0 0 0-.984-.218c-.372 0-.705.073-.997.218a1.72 1.72 0 0 0-.686.596 1.54 1.54 0 0 0-.243.874 1.43 1.43 0 0 0 .226.818c.156.233.379.413.669.541.29.128.633.192 1.03.192zm0-4.142c.312 0 .59-.063.83-.188.245-.125.437-.299.576-.524.14-.224.21-.487.213-.788a1.458 1.458 0 0 0-.209-.772 1.356 1.356 0 0 0-.566-.511 1.848 1.848 0 0 0-.844-.183c-.327 0-.612.061-.857.183a1.32 1.32 0 0 0-.566.511 1.426 1.426 0 0 0-.196.772c-.003.301.063.564.2.788.139.225.33.399.575.524.244.125.526.188.844.188zm7.446 5.079c-.643 0-1.19-.174-1.641-.524-.452-.352-.797-.862-1.036-1.53-.238-.67-.358-1.48-.358-2.429 0-.943.12-1.748.358-2.416.242-.67.588-1.182 1.04-1.534.455-.355 1-.533 1.637-.533.636 0 1.18.178 1.632.533.454.352.8.864 1.04 1.534.24.668.362 1.473.362 2.416 0 .949-.12 1.759-.358 2.429-.239.668-.584 1.178-1.036 1.53-.451.35-.998.524-1.64.524zm0-.937c.636 0 1.13-.307 1.483-.921.352-.613.528-1.488.528-2.625 0-.755-.081-1.399-.243-1.93-.16-.531-.39-.936-.69-1.215a1.525 1.525 0 0 0-1.078-.417c-.631 0-1.124.311-1.48.933-.354.619-.532 1.496-.532 2.629 0 .756.08 1.398.239 1.926.159.529.388.931.686 1.206.301.276.663.414 1.087.414zm7.5.937c-.642 0-1.19-.174-1.641-.524-.452-.352-.797-.862-1.036-1.53-.238-.67-.358-1.48-.358-2.429 0-.943.12-1.748.358-2.416.242-.67.588-1.182 1.04-1.534.455-.355 1-.533 1.637-.533.636 0 1.18.178 1.632.533.454.352.8.864 1.04 1.534.24.668.362 1.473.362 2.416 0 .949-.12 1.759-.358 2.429-.239.668-.584 1.178-1.036 1.53-.451.35-.998.524-1.64.524zm0-.937c.636 0 1.13-.307 1.483-.921.352-.613.528-1.488.528-2.625 0-.755-.081-1.399-.243-1.93-.16-.531-.39-.936-.69-1.215a1.525 1.525 0 0 0-1.078-.417c-.631 0-1.124.311-1.48.933-.354.619-.532 1.496-.532 2.629 0 .756.08 1.398.239 1.926.159.529.388.931.686 1.206.301.276.663.414 1.087.414zm4.806-7.909h1.262l2.966 7.244h.102l2.966-7.244h1.261V362h-.989v-6.631h-.085L33.207 362h-.955l-2.727-6.631h-.085V362h-.989v-8.727zm-24.479-36V326H2.915v-7.619h-.051l-2.131 1.414v-1.073l2.182-1.449h1.057zM6.482 326v-.767l2.88-3.153c.338-.37.617-.691.835-.964a3.51 3.51 0 0 0 .486-.775c.108-.244.162-.5.162-.767a1.42 1.42 0 0 0-.221-.797 1.44 1.44 0 0 0-.597-.52 1.936 1.936 0 0 0-.852-.183c-.336 0-.628.069-.878.209a1.436 1.436 0 0 0-.575.575c-.134.247-.2.537-.2.869H6.515c0-.511.118-.96.353-1.346.236-.387.557-.688.963-.904.41-.216.868-.324 1.377-.324.511 0 .964.108 1.36.324.394.216.704.507.928.874.225.366.337.774.337 1.223 0 .321-.058.635-.175.942-.114.304-.312.643-.597 1.018-.28.372-.671.827-1.171 1.364l-1.96 2.096v.068h4.056V326H6.482zm10.112.119c-.642 0-1.19-.174-1.64-.524-.453-.352-.798-.862-1.036-1.53-.239-.67-.358-1.48-.358-2.429 0-.943.119-1.748.358-2.416.241-.67.588-1.182 1.04-1.534.454-.355 1-.533 1.636-.533.636 0 1.18.178 1.632.533.454.352.801.864 1.04 1.534.241.668.362 1.473.362 2.416 0 .949-.12 1.759-.358 2.429-.239.668-.584 1.178-1.036 1.53-.451.35-.998.524-1.64.524zm0-.937c.636 0 1.13-.307 1.483-.921.352-.613.528-1.488.528-2.625 0-.755-.08-1.399-.243-1.93-.159-.531-.389-.936-.69-1.215a1.525 1.525 0 0 0-1.078-.417c-.63 0-1.124.311-1.479.933-.355.619-.533 1.496-.533 2.629 0 .756.08 1.398.239 1.926.16.529.388.931.686 1.206.301.276.664.414 1.087.414zm7.5.937c-.642 0-1.19-.174-1.64-.524-.453-.352-.798-.862-1.036-1.53-.239-.67-.358-1.48-.358-2.429 0-.943.119-1.748.358-2.416.241-.67.588-1.182 1.04-1.534.454-.355 1-.533 1.636-.533.636 0 1.18.178 1.632.533.454.352.801.864 1.04 1.534.241.668.362 1.473.362 2.416 0 .949-.12 1.759-.358 2.429-.239.668-.584 1.178-1.036 1.53-.451.35-.998.524-1.64.524zm0-.937c.636 0 1.13-.307 1.483-.921.352-.613.528-1.488.528-2.625 0-.755-.08-1.399-.243-1.93-.159-.531-.389-.936-.69-1.215a1.525 1.525 0 0 0-1.078-.417c-.63 0-1.124.311-1.479.933-.355.619-.533 1.496-.533 2.629 0 .756.08 1.398.239 1.926.16.529.388.931.686 1.206.301.276.663.414 1.087.414zm4.807-7.909h1.26l2.967 7.244h.102l2.966-7.244h1.261V326h-.988v-6.631h-.086L33.657 326h-.954l-2.728-6.631h-.085V326h-.988v-8.727zm-24.929-33V293H2.915v-7.619h-.051l-2.131 1.414v-1.073l2.182-1.449h1.057zm5.407 8.846a3.265 3.265 0 0 1-1.074-.204 2.573 2.573 0 0 1-.98-.661c-.295-.312-.532-.734-.711-1.265-.18-.534-.269-1.205-.269-2.012 0-.772.073-1.457.218-2.054.144-.599.355-1.103.63-1.512.276-.412.608-.725.997-.938a2.73 2.73 0 0 1 1.326-.32c.488 0 .923.098 1.304.294a2.5 2.5 0 0 1 .937.81c.242.347.398.746.469 1.198h-1.04a1.922 1.922 0 0 0-.562-.976c-.279-.259-.648-.388-1.108-.388-.677 0-1.21.294-1.598.882-.387.588-.581 1.413-.584 2.476h.068a2.547 2.547 0 0 1 2.148-1.159c.5 0 .957.125 1.372.375.415.247.747.589.997 1.027.25.434.375.933.375 1.496a3.07 3.07 0 0 1-.362 1.482 2.76 2.76 0 0 1-1.019 1.066c-.434.261-.946.389-1.534.383zm0-.937c.358 0 .68-.09.963-.269a1.92 1.92 0 0 0 .678-.72 2.03 2.03 0 0 0 .251-1.005c0-.361-.08-.689-.243-.985a1.862 1.862 0 0 0-.66-.712 1.748 1.748 0 0 0-.955-.264c-.27 0-.521.054-.754.162a1.94 1.94 0 0 0-.614.435 2.1 2.1 0 0 0-.409.635 2.02 2.02 0 0 0 .767 2.446c.287.184.613.277.976.277zm7.437.937c-.642 0-1.188-.174-1.64-.524-.452-.352-.797-.862-1.036-1.53-.238-.67-.358-1.48-.358-2.429 0-.943.12-1.748.358-2.416.242-.67.588-1.182 1.04-1.534.455-.355 1-.533 1.636-.533.637 0 1.18.178 1.633.533.454.352.8.864 1.04 1.534.24.668.361 1.473.361 2.416 0 .949-.119 1.759-.358 2.429-.238.668-.583 1.178-1.035 1.53-.452.35-.998.524-1.64.524zm0-.937c.637 0 1.131-.307 1.483-.921.353-.613.529-1.488.529-2.625 0-.755-.081-1.399-.243-1.93-.16-.531-.39-.936-.69-1.215a1.525 1.525 0 0 0-1.079-.417c-.63 0-1.123.311-1.478.933-.355.619-.533 1.496-.533 2.629 0 .756.08 1.398.239 1.926.159.529.387.931.686 1.206.3.276.663.414 1.086.414zm7.5.937c-.642 0-1.188-.174-1.64-.524-.452-.352-.797-.862-1.036-1.53-.238-.67-.358-1.48-.358-2.429 0-.943.12-1.748.358-2.416.242-.67.588-1.182 1.04-1.534.455-.355 1-.533 1.636-.533.637 0 1.18.178 1.633.533.454.352.8.864 1.04 1.534.24.668.361 1.473.361 2.416 0 .949-.119 1.759-.358 2.429-.238.668-.583 1.178-1.035 1.53-.452.35-.998.524-1.64.524zm0-.937c.637 0 1.131-.307 1.483-.921.353-.613.529-1.488.529-2.625 0-.755-.081-1.399-.243-1.93-.16-.531-.39-.936-.69-1.215a1.525 1.525 0 0 0-1.079-.417c-.63 0-1.123.311-1.478.933-.355.619-.533 1.496-.533 2.629 0 .756.08 1.398.239 1.926.159.529.387.931.686 1.206.3.276.663.414 1.086.414zm4.807-7.909h1.262l2.965 7.244h.103l2.966-7.244h1.261V293h-.989v-6.631h-.085L33.88 293h-.955l-2.727-6.631h-.085V293h-.989v-8.727zM.903 255v-.767l2.881-3.153c.338-.37.617-.691.835-.964a3.56 3.56 0 0 0 .486-.775c.108-.244.162-.5.162-.767 0-.307-.074-.573-.222-.797a1.44 1.44 0 0 0-.596-.52 1.936 1.936 0 0 0-.852-.183c-.336 0-.628.069-.878.209a1.435 1.435 0 0 0-.576.575c-.133.247-.2.537-.2.869H.937c0-.511.118-.96.354-1.346.236-.387.557-.688.963-.904.41-.216.868-.324 1.377-.324.511 0 .964.108 1.36.324.394.216.704.507.928.874.224.366.337.774.337 1.223 0 .321-.059.635-.175.942-.114.304-.313.643-.597 1.018-.28.372-.671.827-1.171 1.364l-1.96 2.096v.068h4.056V255H.903zm10.113.119c-.642 0-1.19-.174-1.641-.524-.452-.352-.797-.862-1.036-1.53-.238-.67-.357-1.48-.357-2.429 0-.943.119-1.748.357-2.416.242-.67.589-1.182 1.04-1.534.455-.355 1-.533 1.637-.533.636 0 1.18.178 1.632.533.454.352.8.864 1.04 1.534.241.668.362 1.473.362 2.416 0 .949-.12 1.759-.358 2.429-.239.668-.584 1.178-1.036 1.53-.452.35-.998.524-1.64.524zm0-.937c.636 0 1.13-.307 1.483-.921.352-.613.528-1.488.528-2.625 0-.755-.081-1.399-.243-1.93-.159-.531-.39-.936-.69-1.215a1.525 1.525 0 0 0-1.078-.417c-.631 0-1.124.311-1.48.933-.354.619-.532 1.496-.532 2.629 0 .756.08 1.398.239 1.926.159.529.388.931.686 1.206.301.276.663.414 1.087.414zm7.5.937c-.642 0-1.19-.174-1.641-.524-.452-.352-.797-.862-1.036-1.53-.238-.67-.357-1.48-.357-2.429 0-.943.119-1.748.357-2.416.242-.67.589-1.182 1.04-1.534.455-.355 1-.533 1.637-.533.636 0 1.18.178 1.632.533.454.352.8.864 1.04 1.534.241.668.362 1.473.362 2.416 0 .949-.12 1.759-.358 2.429-.239.668-.584 1.178-1.036 1.53-.451.35-.998.524-1.64.524zm0-.937c.636 0 1.13-.307 1.483-.921.352-.613.528-1.488.528-2.625 0-.755-.081-1.399-.243-1.93-.159-.531-.39-.936-.69-1.215a1.525 1.525 0 0 0-1.078-.417c-.631 0-1.124.311-1.48.933-.354.619-.532 1.496-.532 2.629 0 .756.08 1.398.239 1.926.159.529.388.931.686 1.206.301.276.663.414 1.087.414zm7.5.937c-.642 0-1.19-.174-1.641-.524-.452-.352-.797-.862-1.035-1.53-.24-.67-.358-1.48-.358-2.429 0-.943.119-1.748.358-2.416.241-.67.588-1.182 1.04-1.534.454-.355 1-.533 1.636-.533.636 0 1.18.178 1.632.533.454.352.8.864 1.04 1.534.241.668.362 1.473.362 2.416 0 .949-.12 1.759-.358 2.429-.239.668-.584 1.178-1.036 1.53-.451.35-.998.524-1.64.524zm0-.937c.636 0 1.13-.307 1.483-.921.352-.613.528-1.488.528-2.625 0-.755-.081-1.399-.243-1.93-.159-.531-.39-.936-.69-1.215a1.525 1.525 0 0 0-1.078-.417c-.631 0-1.124.311-1.48.933-.354.619-.532 1.496-.532 2.629 0 .756.08 1.398.239 1.926.159.529.388.931.686 1.206.301.276.663.414 1.087.414zm4.806-7.909h1.262l2.966 7.244h.102l2.966-7.244h1.261V255h-.988v-6.631h-.086L35.578 255h-.954l-2.728-6.631h-.085V255h-.989v-8.727zM.903 223v-.767l2.881-3.153c.338-.37.617-.691.835-.964a3.56 3.56 0 0 0 .486-.775c.108-.244.162-.5.162-.767 0-.307-.074-.573-.222-.797a1.44 1.44 0 0 0-.596-.52 1.936 1.936 0 0 0-.852-.183c-.336 0-.628.069-.878.209a1.435 1.435 0 0 0-.576.575c-.133.247-.2.537-.2.869H.937c0-.511.118-.96.354-1.346.236-.387.557-.688.963-.904.41-.216.868-.324 1.377-.324.511 0 .964.108 1.36.324.394.216.704.507.928.874.224.366.337.774.337 1.223 0 .321-.059.635-.175.942-.114.304-.313.643-.597 1.018-.28.372-.671.827-1.171 1.364l-1.96 2.096v.068h4.056V223H.903zm6.874-1.79v-.869l3.835-6.068h.63v1.346h-.425l-2.898 4.586v.068h5.165v.937H7.777zm4.108 1.79v-8.727h1.006V223h-1.006zm6.642.119c-.642 0-1.189-.174-1.64-.524-.452-.352-.797-.862-1.036-1.53-.238-.67-.358-1.48-.358-2.429 0-.943.12-1.748.358-2.416.242-.67.588-1.182 1.04-1.534.455-.355 1-.533 1.636-.533.637 0 1.18.178 1.632.533.455.352.802.864 1.04 1.534.242.668.362 1.473.362 2.416 0 .949-.119 1.759-.358 2.429-.238.668-.583 1.178-1.035 1.53-.452.35-.999.524-1.64.524zm0-.937c.637 0 1.131-.307 1.483-.921.353-.613.529-1.488.529-2.625 0-.755-.081-1.399-.243-1.93-.16-.531-.39-.936-.69-1.215a1.525 1.525 0 0 0-1.079-.417c-.63 0-1.123.311-1.478.933-.355.619-.533 1.496-.533 2.629 0 .756.08 1.398.239 1.926.159.529.387.931.686 1.206.3.276.663.414 1.086.414zm7.5.937c-.642 0-1.189-.174-1.64-.524-.452-.352-.797-.862-1.036-1.53-.238-.67-.358-1.48-.358-2.429 0-.943.12-1.748.358-2.416.242-.67.588-1.182 1.04-1.534.455-.355 1-.533 1.636-.533.637 0 1.18.178 1.632.533.455.352.802.864 1.04 1.534.242.668.362 1.473.362 2.416 0 .949-.119 1.759-.358 2.429-.238.668-.583 1.178-1.035 1.53-.452.35-.999.524-1.64.524zm0-.937c.637 0 1.131-.307 1.483-.921.353-.613.529-1.488.529-2.625 0-.755-.081-1.399-.243-1.93-.16-.531-.39-.936-.69-1.215a1.525 1.525 0 0 0-1.079-.417c-.63 0-1.123.311-1.478.933-.355.619-.533 1.496-.533 2.629 0 .756.08 1.398.239 1.926.159.529.387.931.686 1.206.3.276.663.414 1.086.414zm4.807-7.909h1.262l2.965 7.244h.103l2.966-7.244h1.261V223h-.989v-6.631h-.085L35.59 223h-.955l-2.727-6.631h-.085V223h-.989v-8.727zM.903 191v-.767l2.881-3.153c.338-.37.617-.691.835-.964a3.56 3.56 0 0 0 .486-.775c.108-.244.162-.5.162-.767 0-.307-.074-.573-.222-.797a1.44 1.44 0 0 0-.596-.52 1.936 1.936 0 0 0-.852-.183c-.336 0-.628.069-.878.209a1.435 1.435 0 0 0-.576.575c-.133.247-.2.537-.2.869H.937c0-.511.118-.96.354-1.346.236-.387.557-.688.963-.904.41-.216.868-.324 1.377-.324.511 0 .964.108 1.36.324.394.216.704.507.928.874.224.366.337.774.337 1.223 0 .321-.059.635-.175.942-.114.304-.313.643-.597 1.018-.28.372-.671.827-1.171 1.364l-1.96 2.096v.068h4.056V191H.903zm10.061.119c-.585 0-1.102-.103-1.55-.311a2.535 2.535 0 0 1-1.045-.865 2.173 2.173 0 0 1-.37-1.261 2.32 2.32 0 0 1 .822-1.811 1.86 1.86 0 0 1 .865-.405v-.051a1.688 1.688 0 0 1-.997-.703 2.13 2.13 0 0 1-.367-1.24c-.002-.444.11-.84.337-1.189.227-.35.54-.625.938-.827.4-.202.856-.303 1.367-.303.506 0 .958.101 1.356.303.397.202.71.477.937.827.23.349.347.745.35 1.189-.003.463-.13.876-.38 1.24-.247.36-.575.595-.984.703v.051c.315.057.6.192.852.405.253.21.455.473.605.788.15.313.228.653.23 1.023-.002.471-.13.892-.383 1.261-.25.367-.598.655-1.044.865-.443.208-.956.311-1.539.311zm0-.937c.395 0 .736-.064 1.023-.192.287-.128.509-.308.665-.541a1.46 1.46 0 0 0 .239-.818 1.57 1.57 0 0 0-.256-.874 1.725 1.725 0 0 0-.686-.596 2.153 2.153 0 0 0-.985-.218c-.372 0-.704.073-.997.218-.29.144-.518.343-.686.596a1.54 1.54 0 0 0-.243.874 1.43 1.43 0 0 0 .226.818c.156.233.38.413.67.541.289.128.633.192 1.03.192zm0-4.142c.313 0 .59-.063.832-.188.244-.125.436-.299.575-.524.139-.224.21-.487.213-.788a1.456 1.456 0 0 0-.209-.772 1.356 1.356 0 0 0-.567-.511 1.847 1.847 0 0 0-.844-.183c-.326 0-.612.061-.856.183-.244.119-.433.29-.567.511a1.426 1.426 0 0 0-.196.772 1.46 1.46 0 0 0 .2.788c.14.225.331.399.576.524.244.125.525.188.843.188zm7.446 5.079c-.642 0-1.189-.174-1.64-.524-.452-.352-.797-.862-1.036-1.53-.239-.67-.358-1.48-.358-2.429 0-.943.12-1.748.358-2.416.242-.67.588-1.182 1.04-1.534.454-.355 1-.533 1.636-.533.637 0 1.18.178 1.632.533.455.352.801.864 1.04 1.534.241.668.362 1.473.362 2.416 0 .949-.12 1.759-.358 2.429-.238.668-.583 1.178-1.035 1.53-.452.35-.999.524-1.64.524zm0-.937c.637 0 1.13-.307 1.483-.921.352-.613.529-1.488.529-2.625 0-.755-.081-1.399-.243-1.93-.16-.531-.39-.936-.69-1.215a1.525 1.525 0 0 0-1.079-.417c-.63 0-1.123.311-1.479.933-.355.619-.532 1.496-.532 2.629 0 .756.08 1.398.238 1.926.16.529.388.931.686 1.206.302.276.664.414 1.087.414zm7.5.937c-.642 0-1.189-.174-1.64-.524-.452-.352-.797-.862-1.036-1.53-.239-.67-.358-1.48-.358-2.429 0-.943.12-1.748.358-2.416.241-.67.588-1.182 1.04-1.534.454-.355 1-.533 1.636-.533.637 0 1.18.178 1.632.533.455.352.801.864 1.04 1.534.241.668.362 1.473.362 2.416 0 .949-.12 1.759-.358 2.429-.238.668-.583 1.178-1.035 1.53-.452.35-.999.524-1.64.524zm0-.937c.637 0 1.13-.307 1.483-.921.352-.613.529-1.488.529-2.625 0-.755-.081-1.399-.243-1.93-.16-.531-.39-.936-.69-1.215a1.525 1.525 0 0 0-1.079-.417c-.63 0-1.123.311-1.479.933-.355.619-.532 1.496-.532 2.629 0 .756.08 1.398.238 1.926.16.529.388.931.686 1.206.302.276.664.414 1.087.414zm4.807-7.909h1.261l2.966 7.244h.102l2.966-7.244h1.262V191h-.989v-6.631H38.2L35.473 191h-.955l-2.727-6.631h-.085V191h-.989v-8.727zm166.787 307V498h-1.845v-6.976h-.051l-1.999 1.253v-1.636l2.161-1.368h1.734zm2.074 8.727v-1.33l3.107-2.876c.264-.256.486-.486.665-.69.182-.205.319-.405.413-.601a1.49 1.49 0 0 0 .141-.644c0-.255-.058-.475-.175-.66a1.15 1.15 0 0 0-.477-.431 1.502 1.502 0 0 0-.686-.153c-.267 0-.5.054-.699.162a1.118 1.118 0 0 0-.46.464 1.508 1.508 0 0 0-.162.721h-1.752c0-.571.13-1.067.388-1.488.259-.42.621-.745 1.087-.975.466-.231 1.003-.346 1.61-.346.625 0 1.17.111 1.633.333.465.219.828.523 1.086.912.259.389.388.835.388 1.338 0 .329-.065.655-.196.976-.128.321-.357.677-.686 1.069-.33.389-.794.857-1.394 1.402l-1.274 1.249v.059h3.665V498h-6.222zm17.687-8.727V498h-1.593l-3.797-5.493h-.064V498h-1.845v-8.727h1.619l3.767 5.488h.077v-5.488h1.836zm4.448 8.855c-.662 0-1.234-.141-1.717-.422a2.883 2.883 0 0 1-1.112-1.185c-.262-.508-.393-1.098-.393-1.768 0-.676.131-1.267.393-1.773a2.86 2.86 0 0 1 1.112-1.185c.483-.284 1.055-.426 1.717-.426.662 0 1.233.142 1.713.426.483.282.855.677 1.117 1.185.261.506.392 1.097.392 1.773 0 .67-.131 1.26-.392 1.768a2.882 2.882 0 0 1-1.117 1.185c-.48.281-1.051.422-1.713.422zm.009-1.406c.301 0 .552-.086.754-.256a1.58 1.58 0 0 0 .456-.707c.105-.299.157-.638.157-1.019 0-.381-.052-.72-.157-1.018a1.578 1.578 0 0 0-.456-.708 1.118 1.118 0 0 0-.754-.26c-.304 0-.56.087-.767.26-.205.173-.36.409-.465.708a3.134 3.134 0 0 0-.153 1.018c0 .381.051.72.153 1.019.105.298.26.534.465.707.207.17.463.256.767.256zm10.284-5.267L229.718 498h-2.045l-2.289-6.545h1.918l1.359 4.683h.068l1.356-4.683h1.921zm89.498-2.182V498h-1.845v-6.976h-.051l-1.999 1.253v-1.636l2.161-1.368h1.734zm5.3 8.846c-.636 0-1.203-.109-1.7-.328-.494-.221-.885-.525-1.172-.912a2.295 2.295 0 0 1-.439-1.346h1.858c.012.213.081.4.209.562.131.159.304.283.52.371.216.088.459.132.729.132.281 0 .529-.05.745-.149.216-.1.385-.237.507-.413.123-.177.184-.38.184-.61 0-.233-.066-.439-.196-.618a1.253 1.253 0 0 0-.554-.426 2.163 2.163 0 0 0-.853-.153h-.814v-1.355h.814c.279 0 .525-.049.738-.145.216-.097.383-.23.502-.401.12-.173.179-.375.179-.605a1.044 1.044 0 0 0-.592-.967 1.41 1.41 0 0 0-.648-.141c-.25 0-.478.046-.686.136a1.2 1.2 0 0 0-.498.38 1 1 0 0 0-.201.579h-1.768c.008-.503.152-.946.43-1.329a2.79 2.79 0 0 1 1.125-.899 3.793 3.793 0 0 1 1.607-.329c.602 0 1.129.11 1.581.329.452.218.802.514 1.052.886.253.369.378.784.375 1.244.003.489-.149.897-.456 1.223-.304.327-.7.534-1.188.622v.069c.642.082 1.13.305 1.465.669.339.36.506.812.503 1.355.003.497-.14.939-.43 1.325-.287.386-.683.69-1.189.912-.506.222-1.085.332-1.739.332zm14.813-8.846V498h-1.594l-3.797-5.493h-.064V498h-1.845v-8.727h1.619l3.767 5.488h.077v-5.488h1.837zm4.448 8.855c-.662 0-1.235-.141-1.718-.422a2.883 2.883 0 0 1-1.112-1.185c-.261-.508-.392-1.098-.392-1.768 0-.676.131-1.267.392-1.773a2.86 2.86 0 0 1 1.112-1.185c.483-.284 1.056-.426 1.718-.426.662 0 1.233.142 1.713.426a2.85 2.85 0 0 1 1.116 1.185c.262.506.392 1.097.392 1.773 0 .67-.13 1.26-.392 1.768a2.873 2.873 0 0 1-1.116 1.185c-.48.281-1.051.422-1.713.422zm.008-1.406c.301 0 .553-.086.754-.256a1.58 1.58 0 0 0 .456-.707c.105-.299.158-.638.158-1.019 0-.381-.053-.72-.158-1.018a1.578 1.578 0 0 0-.456-.708 1.116 1.116 0 0 0-.754-.26c-.304 0-.56.087-.767.26a1.598 1.598 0 0 0-.464.708 3.107 3.107 0 0 0-.154 1.018c0 .381.051.72.154 1.019a1.6 1.6 0 0 0 .464.707c.207.17.463.256.767.256zm10.285-5.267L354.07 498h-2.046l-2.288-6.545h1.917l1.36 4.683h.068l1.355-4.683h1.922zm89.146-2.182V498h-1.845v-6.976h-.051l-1.999 1.253v-1.636l2.161-1.368h1.734zm1.942 7.193v-1.453l3.644-5.74h1.253v2.011h-.742l-2.297 3.635v.068h5.178v1.479h-7.036zm4.189 1.534v-1.977l.034-.644v-6.106h1.731V498h-1.765zm14.204-8.727V498h-1.593l-3.797-5.493h-.064V498h-1.845v-8.727h1.619l3.767 5.488h.077v-5.488h1.836zm4.448 8.855c-.662 0-1.234-.141-1.717-.422a2.883 2.883 0 0 1-1.112-1.185c-.262-.508-.392-1.098-.392-1.768 0-.676.13-1.267.392-1.773a2.86 2.86 0 0 1 1.112-1.185c.483-.284 1.055-.426 1.717-.426.662 0 1.233.142 1.713.426.483.282.855.677 1.117 1.185.261.506.392 1.097.392 1.773 0 .67-.131 1.26-.392 1.768a2.882 2.882 0 0 1-1.117 1.185c-.48.281-1.051.422-1.713.422zm.009-1.406c.301 0 .552-.086.754-.256a1.58 1.58 0 0 0 .456-.707c.105-.299.158-.638.158-1.019 0-.381-.053-.72-.158-1.018a1.578 1.578 0 0 0-.456-.708 1.118 1.118 0 0 0-.754-.26c-.304 0-.56.087-.767.26-.205.173-.36.409-.465.708a3.134 3.134 0 0 0-.153 1.018c0 .381.051.72.153 1.019.105.298.26.534.465.707.207.17.463.256.767.256zm10.285-5.267L478.292 498h-2.045l-2.289-6.545h1.918l1.359 4.683h.069l1.355-4.683h1.922zm88.923-2.182V498h-1.845v-6.976h-.051l-1.999 1.253v-1.636l2.161-1.368h1.734zm5.262 8.846c-.602 0-1.139-.11-1.611-.332a2.801 2.801 0 0 1-1.116-.916 2.354 2.354 0 0 1-.431-1.338h1.79c.02.338.162.612.426.822.264.21.578.315.942.315.29 0 .545-.063.767-.191.224-.131.399-.311.524-.541a1.64 1.64 0 0 0 .192-.802c0-.306-.065-.576-.196-.809a1.386 1.386 0 0 0-.533-.546 1.575 1.575 0 0 0-.78-.2 1.85 1.85 0 0 0-.745.158 1.347 1.347 0 0 0-.559.43l-1.64-.294.413-4.602h5.335v1.508h-3.814l-.225 2.186h.051c.153-.216.385-.395.694-.537a2.47 2.47 0 0 1 1.04-.213c.526 0 .994.124 1.406.371.412.247.738.587.976 1.019.239.429.357.923.354 1.482a2.956 2.956 0 0 1-.409 1.569 2.897 2.897 0 0 1-1.146 1.074c-.489.258-1.057.387-1.705.387zm14.675-8.846V498h-1.594l-3.797-5.493h-.063V498h-1.846v-8.727h1.62l3.767 5.488h.076v-5.488h1.837zm4.448 8.855c-.662 0-1.235-.141-1.717-.422a2.886 2.886 0 0 1-1.113-1.185c-.261-.508-.392-1.098-.392-1.768 0-.676.131-1.267.392-1.773a2.861 2.861 0 0 1 1.113-1.185c.482-.284 1.055-.426 1.717-.426.662 0 1.233.142 1.713.426a2.85 2.85 0 0 1 1.116 1.185c.262.506.392 1.097.392 1.773 0 .67-.13 1.26-.392 1.768a2.873 2.873 0 0 1-1.116 1.185c-.48.281-1.051.422-1.713.422zm.008-1.406c.302 0 .553-.086.755-.256.201-.173.353-.409.456-.707.105-.299.157-.638.157-1.019 0-.381-.052-.72-.157-1.018a1.594 1.594 0 0 0-.456-.708 1.12 1.12 0 0 0-.755-.26c-.304 0-.559.087-.767.26a1.598 1.598 0 0 0-.464.708 3.134 3.134 0 0 0-.154 1.018c0 .381.052.72.154 1.019a1.6 1.6 0 0 0 .464.707c.208.17.463.256.767.256zm10.285-5.267L601.894 498h-2.046l-2.288-6.545h1.918l1.359 4.683h.068l1.355-4.683h1.922zm89.322-2.182V498h-1.845v-6.976h-.051l-1.999 1.253v-1.636l2.161-1.368h1.734zm5.424 8.846a3.945 3.945 0 0 1-1.3-.226 2.935 2.935 0 0 1-1.116-.72c-.33-.332-.591-.772-.784-1.321-.191-.548-.286-1.221-.286-2.02.003-.733.087-1.387.252-1.964.167-.58.406-1.071.715-1.475.313-.403.687-.71 1.121-.92a3.28 3.28 0 0 1 1.462-.32c.582 0 1.096.114 1.542.341.446.225.804.53 1.074.917.273.386.438.819.495 1.299h-1.82a1.218 1.218 0 0 0-.447-.716c-.228-.173-.509-.26-.844-.26-.568 0-1 .248-1.296.742-.292.494-.441 1.166-.447 2.015h.06c.13-.258.306-.478.528-.66a2.41 2.41 0 0 1 .763-.422 2.76 2.76 0 0 1 .907-.149c.518 0 .978.122 1.381.366.404.242.722.574.955.998.233.423.349.907.349 1.453 0 .591-.138 1.116-.413 1.576a2.866 2.866 0 0 1-1.147 1.083c-.488.258-1.056.386-1.704.383zm-.009-1.449a1.443 1.443 0 0 0 1.292-.758 1.61 1.61 0 0 0 .191-.784c0-.29-.064-.55-.191-.78a1.423 1.423 0 0 0-1.279-.754c-.213 0-.41.04-.592.119a1.49 1.49 0 0 0-.789.827 1.538 1.538 0 0 0-.115.592 1.543 1.543 0 0 0 .721 1.33c.224.139.478.208.762.208zm14.71-7.397V498h-1.594l-3.797-5.493h-.064V498h-1.845v-8.727h1.619l3.767 5.488h.077v-5.488h1.837zm4.447 8.855c-.662 0-1.234-.141-1.717-.422a2.883 2.883 0 0 1-1.112-1.185c-.262-.508-.392-1.098-.392-1.768 0-.676.13-1.267.392-1.773a2.86 2.86 0 0 1 1.112-1.185c.483-.284 1.055-.426 1.717-.426.662 0 1.233.142 1.713.426.483.282.856.677 1.117 1.185.261.506.392 1.097.392 1.773 0 .67-.131 1.26-.392 1.768a2.876 2.876 0 0 1-1.117 1.185c-.48.281-1.051.422-1.713.422zm.009-1.406c.301 0 .552-.086.754-.256a1.58 1.58 0 0 0 .456-.707c.105-.299.158-.638.158-1.019 0-.381-.053-.72-.158-1.018a1.578 1.578 0 0 0-.456-.708 1.118 1.118 0 0 0-.754-.26c-.304 0-.56.087-.767.26-.205.173-.36.409-.465.708a3.134 3.134 0 0 0-.153 1.018c0 .381.051.72.153 1.019.105.298.26.534.465.707.207.17.463.256.767.256zm10.285-5.267L726.081 498h-2.045l-2.288-6.545h1.917l1.36 4.683h.068l1.355-4.683h1.922zm89.134-2.182V498h-1.845v-6.976h-.051l-1.999 1.253v-1.636l2.161-1.368h1.734zm2.42 8.727 3.618-7.159v-.06h-4.215v-1.508h6.124v1.53L821.828 498h-1.904zm16.919-8.727V498h-1.593l-3.797-5.493h-.064V498h-1.845v-8.727h1.619l3.767 5.488h.077v-5.488h1.836zm4.448 8.855c-.662 0-1.234-.141-1.717-.422a2.883 2.883 0 0 1-1.112-1.185c-.262-.508-.392-1.098-.392-1.768 0-.676.13-1.267.392-1.773a2.86 2.86 0 0 1 1.112-1.185c.483-.284 1.055-.426 1.717-.426.662 0 1.233.142 1.713.426.483.282.855.677 1.117 1.185.261.506.392 1.097.392 1.773 0 .67-.131 1.26-.392 1.768a2.882 2.882 0 0 1-1.117 1.185c-.48.281-1.051.422-1.713.422zm.009-1.406c.301 0 .552-.086.754-.256a1.58 1.58 0 0 0 .456-.707c.105-.299.158-.638.158-1.019 0-.381-.053-.72-.158-1.018a1.578 1.578 0 0 0-.456-.708 1.118 1.118 0 0 0-.754-.26c-.304 0-.56.087-.767.26-.205.173-.36.409-.465.708a3.134 3.134 0 0 0-.153 1.018c0 .381.051.72.153 1.019.105.298.26.534.465.707.207.17.463.256.767.256zm10.285-5.267L849.296 498h-2.045l-2.289-6.545h1.918l1.359 4.683h.069l1.355-4.683h1.922z"/><path stroke="#A19E9E" stroke-width=".5" d="M40 185.75h874m-874 34h874m-875 33h874m-873 37h874m-875 33h874m-873 37h874m-875 33h874m-873 37h874m-875 33h874"/><circle cx="330" cy="304" r="56" fill="#FF5E03"/><circle cx="182" cy="363" r="30" fill="#FFD362"/><circle cx="495" cy="251" r="25" fill="#BC24C9"/><circle cx="590.5" cy="258.5" r="23.5" fill="#459F36"/><circle cx="714.5" cy="314.5" r="17.5" fill="#555"/><circle cx="440.5" cy="387.5" r="45.5" fill="#FF549C"/><circle cx="691" cy="222" r="15" fill="#6F86C3"/><circle cx="822" cy="304" r="15" fill="#FFEE97"/><circle cx="605.5" cy="373.5" r="10.5" fill="#7FBEC7"/><circle cx="158.5" cy="255.5" r="59.5" fill="#0047FF"/><circle cx="42" cy="86" r="7" fill="#0047FF"/><path fill="#000" d="M65.15 80.273h1.844v5.667c0 .637-.152 1.194-.456 1.67a3.05 3.05 0 0 1-1.265 1.117c-.543.264-1.175.397-1.897.397-.724 0-1.357-.132-1.9-.397a3.05 3.05 0 0 1-1.266-1.116c-.3-.478-.452-1.034-.452-1.67v-5.668h1.846v5.51c0 .332.072.627.217.886.148.259.355.462.622.61.267.147.578.221.933.221.358 0 .67-.074.934-.222.267-.147.473-.35.618-.609a1.76 1.76 0 0 0 .221-.886v-5.51zm5.144 4.943V89h-1.816v-6.546h1.73v1.155h.077a1.83 1.83 0 0 1 .729-.903c.34-.225.754-.337 1.24-.337.454 0 .85.1 1.189.299.338.198.6.483.788.852.188.366.281.804.281 1.312V89h-1.815v-3.844c.003-.4-.1-.713-.307-.937-.207-.227-.493-.341-.856-.341-.245 0-.46.052-.648.157a1.1 1.1 0 0 0-.435.46 1.596 1.596 0 0 0-.157.72zM75.944 89v-6.546h1.814V89h-1.815zm.911-7.39a.986.986 0 0 1-.695-.268.87.87 0 0 1-.285-.652c0-.25.095-.464.285-.643a.978.978 0 0 1 .695-.273c.27 0 .5.091.69.273.194.179.29.393.29.643 0 .253-.096.47-.29.652a.972.972 0 0 1-.69.269zm7.804 2.711-1.662.102a.859.859 0 0 0-.183-.383.973.973 0 0 0-.371-.277 1.26 1.26 0 0 0-.541-.107c-.282 0-.519.06-.712.18-.193.116-.29.272-.29.468 0 .156.063.288.188.396.125.108.34.195.643.26l1.185.239c.636.13 1.11.34 1.423.63.313.29.469.671.469 1.143 0 .429-.127.805-.38 1.129-.25.324-.593.577-1.03.758-.435.18-.937.269-1.505.269-.866 0-1.557-.18-2.07-.541a2.108 2.108 0 0 1-.9-1.483l1.785-.094a.917.917 0 0 0 .392.605c.208.136.474.205.797.205.319 0 .574-.061.767-.184.196-.125.296-.285.299-.481a.5.5 0 0 0-.21-.405c-.135-.108-.346-.19-.63-.247l-1.133-.226c-.64-.128-1.115-.35-1.428-.665-.31-.315-.464-.717-.464-1.206 0-.42.113-.782.34-1.086.23-.304.553-.539.968-.703.417-.165.906-.248 1.466-.248.826 0 1.477.175 1.951.525.478.349.756.825.836 1.427zM87.242 89l-1.781-6.546h1.837l1.014 4.398h.06l1.056-4.398h1.803l1.074 4.373h.055l.997-4.373h1.833L93.413 89H91.49l-1.125-4.117h-.081L89.16 89h-1.918zm10.782.124c-.417 0-.79-.073-1.116-.218a1.797 1.797 0 0 1-.776-.652c-.187-.29-.28-.65-.28-1.082 0-.364.066-.67.2-.916.133-.248.315-.446.545-.597.23-.15.491-.264.784-.34.296-.078.605-.132.929-.163.38-.04.688-.077.92-.11.233-.038.402-.092.508-.163a.356.356 0 0 0 .157-.315v-.025c0-.27-.085-.48-.255-.627-.168-.147-.407-.221-.716-.221-.327 0-.587.072-.78.217a1 1 0 0 0-.384.537l-1.679-.136c.085-.398.253-.742.503-1.032.25-.292.573-.517.968-.673.397-.16.857-.239 1.38-.239.364 0 .712.043 1.044.128.335.085.632.218.891.397.261.178.467.409.618.69.15.278.226.612.226 1.001V89h-1.722v-.908h-.051a1.848 1.848 0 0 1-.422.541 1.952 1.952 0 0 1-.635.363 2.622 2.622 0 0 1-.856.128zm.52-1.253c.267 0 .503-.053.708-.158.204-.108.365-.253.481-.435a1.12 1.12 0 0 0 .175-.618v-.694a.975.975 0 0 1-.234.102 4.248 4.248 0 0 1-.329.081c-.122.023-.244.044-.366.064a95.24 95.24 0 0 0-.332.047c-.213.031-.4.08-.559.15a.893.893 0 0 0-.37.276.675.675 0 0 0-.132.426c0 .247.09.436.268.567.182.128.412.192.69.192zm4.575 3.584v-9h1.79v1.099h.081c.079-.176.194-.355.345-.537a1.81 1.81 0 0 1 .596-.46c.248-.125.554-.188.921-.188.477 0 .918.125 1.321.375.403.248.726.621.967 1.121.242.497.362 1.12.362 1.87 0 .73-.117 1.347-.353 1.85-.233.5-.551.88-.955 1.138-.4.256-.849.383-1.346.383-.353 0-.652-.058-.899-.174a1.851 1.851 0 0 1-.601-.44 2.197 2.197 0 0 1-.358-.54h-.056v3.502h-1.815zm1.777-5.728c0 .39.054.729.162 1.019.108.29.264.515.469.677.204.16.453.239.745.239.296 0 .546-.081.75-.243a1.51 1.51 0 0 0 .465-.682c.108-.292.162-.629.162-1.01 0-.378-.053-.71-.158-.997a1.488 1.488 0 0 0-.464-.673 1.18 1.18 0 0 0-.755-.243 1.2 1.2 0 0 0-.75.234 1.475 1.475 0 0 0-.464.665 2.876 2.876 0 0 0-.162 1.014zm14.696-3.273L117.304 89h-2.045l-2.289-6.546h1.918l1.359 4.684h.068l1.355-4.684h1.922zm4.138 6.665c-.636 0-1.203-.11-1.7-.328-.494-.221-.885-.525-1.172-.912a2.296 2.296 0 0 1-.439-1.346h1.858c.011.213.081.4.209.562.13.16.304.283.52.37.216.089.458.133.728.133.282 0 .53-.05.746-.15.216-.099.385-.236.507-.412.122-.177.183-.38.183-.61 0-.233-.065-.439-.196-.618a1.246 1.246 0 0 0-.554-.426 2.15 2.15 0 0 0-.852-.153h-.814v-1.355h.814c.279 0 .524-.049.737-.145.216-.097.384-.23.503-.4a1.04 1.04 0 0 0 .179-.606 1.047 1.047 0 0 0-.592-.967 1.415 1.415 0 0 0-.648-.14c-.25 0-.479.044-.686.135a1.21 1.21 0 0 0-.499.38 1.008 1.008 0 0 0-.2.58h-1.768c.008-.504.152-.947.43-1.33a2.802 2.802 0 0 1 1.125-.9 3.808 3.808 0 0 1 1.607-.328c.602 0 1.129.11 1.581.328a2.6 2.6 0 0 1 1.052.887c.253.37.378.784.375 1.244.003.489-.149.897-.456 1.223-.304.327-.7.534-1.189.622v.069c.642.082 1.131.305 1.466.669.338.36.506.812.503 1.355.003.497-.141.939-.43 1.325-.287.386-.684.69-1.189.912-.506.221-1.085.332-1.739.332z"/><circle cx="179" cy="86" r="7" fill="#FF5E03"/><path fill="#000" d="M202.149 80.273h1.845v5.667c0 .637-.152 1.194-.456 1.67-.301.478-.723.85-1.265 1.117-.543.264-1.175.397-1.897.397-.724 0-1.358-.132-1.9-.397a3.048 3.048 0 0 1-1.266-1.116c-.301-.478-.451-1.034-.451-1.67v-5.668h1.845v5.51c0 .332.072.627.217.886.148.259.355.462.622.61.267.147.578.221.933.221.358 0 .669-.074.934-.222.267-.147.473-.35.618-.609a1.76 1.76 0 0 0 .221-.886v-5.51zm5.145 4.943V89h-1.816v-6.546h1.73v1.155h.077a1.83 1.83 0 0 1 .729-.903c.341-.225.754-.337 1.24-.337.454 0 .851.1 1.189.299.338.198.601.483.788.852.188.366.281.804.281 1.312V89h-1.815v-3.844c.003-.4-.099-.713-.307-.937-.207-.227-.493-.341-.856-.341-.245 0-.46.052-.648.157-.185.106-.33.259-.435.46a1.6 1.6 0 0 0-.157.72zM212.943 89v-6.546h1.816V89h-1.816zm.912-7.39a.984.984 0 0 1-.694-.268.868.868 0 0 1-.286-.652.85.85 0 0 1 .286-.643.976.976 0 0 1 .694-.273c.27 0 .5.091.69.273.194.179.29.393.29.643 0 .253-.096.47-.29.652a.97.97 0 0 1-.69.269zm7.804 2.711-1.662.102a.873.873 0 0 0-.183-.383.979.979 0 0 0-.371-.277 1.261 1.261 0 0 0-.541-.107c-.282 0-.519.06-.712.18-.193.116-.29.272-.29.468 0 .156.063.288.188.396.125.108.339.195.643.26l1.185.239c.636.13 1.111.34 1.423.63.313.29.469.671.469 1.143 0 .429-.127.805-.379 1.129-.25.324-.594.577-1.032.758-.434.18-.936.269-1.504.269-.866 0-1.557-.18-2.071-.541a2.11 2.11 0 0 1-.899-1.483l1.785-.094a.919.919 0 0 0 .392.605c.208.136.474.205.797.205.319 0 .574-.061.767-.184.196-.125.296-.285.299-.481a.503.503 0 0 0-.209-.405c-.136-.108-.347-.19-.631-.247l-1.133-.226c-.64-.128-1.115-.35-1.428-.665-.31-.315-.464-.717-.464-1.206 0-.42.113-.782.341-1.086.23-.304.552-.539.967-.703.418-.165.906-.248 1.466-.248.827 0 1.477.175 1.952.525.477.349.755.825.835 1.427zM224.242 89l-1.781-6.546h1.837l1.014 4.398h.059l1.057-4.398h1.803l1.074 4.373h.055l.997-4.373h1.833L230.413 89h-1.922l-1.125-4.117h-.081L226.16 89h-1.918zm10.783.124a2.73 2.73 0 0 1-1.117-.218 1.8 1.8 0 0 1-.776-.652c-.187-.29-.281-.65-.281-1.082 0-.364.067-.67.2-.916.134-.248.316-.446.546-.597.23-.15.491-.264.784-.34.295-.078.605-.132.929-.163.381-.04.688-.077.92-.11.233-.038.402-.092.508-.163a.356.356 0 0 0 .157-.315v-.025c0-.27-.085-.48-.255-.627-.168-.147-.407-.221-.716-.221-.327 0-.587.072-.78.217a1.005 1.005 0 0 0-.384.537l-1.679-.136a2.29 2.29 0 0 1 .503-1.032c.25-.292.573-.517.967-.673.398-.16.858-.239 1.381-.239.364 0 .712.043 1.044.128.335.085.632.218.891.397.261.178.467.409.618.69.15.278.226.612.226 1.001V89h-1.722v-.908h-.051a1.847 1.847 0 0 1-.422.541 1.952 1.952 0 0 1-.635.363 2.622 2.622 0 0 1-.856.128zm.519-1.253c.267 0 .503-.053.708-.158.204-.108.365-.253.481-.435.117-.181.175-.387.175-.618v-.694a.983.983 0 0 1-.234.102 4.312 4.312 0 0 1-.328.081 17.23 17.23 0 0 1-.367.064l-.332.047a2.265 2.265 0 0 0-.559.15.89.89 0 0 0-.37.276.675.675 0 0 0-.132.426c0 .247.089.436.268.567.182.128.412.192.69.192zm4.575 3.584v-9h1.79v1.099h.081c.079-.176.194-.355.345-.537a1.81 1.81 0 0 1 .596-.46c.248-.125.554-.188.921-.188.477 0 .918.125 1.321.375.403.248.726.621.967 1.121.242.497.362 1.12.362 1.87 0 .73-.117 1.347-.353 1.85-.233.5-.551.88-.955 1.138-.4.256-.849.383-1.346.383-.353 0-.652-.058-.899-.174a1.851 1.851 0 0 1-.601-.44 2.197 2.197 0 0 1-.358-.54h-.056v3.502h-1.815zm1.777-5.728c0 .39.054.729.162 1.019.108.29.264.515.469.677.204.16.453.239.745.239.296 0 .546-.081.75-.243a1.51 1.51 0 0 0 .465-.682c.108-.292.162-.629.162-1.01 0-.378-.053-.71-.158-.997a1.488 1.488 0 0 0-.464-.673 1.18 1.18 0 0 0-.755-.243 1.2 1.2 0 0 0-.75.234 1.475 1.475 0 0 0-.464.665 2.876 2.876 0 0 0-.162 1.014zm14.696-3.273L254.304 89h-2.045l-2.289-6.546h1.918l1.359 4.684h.068l1.355-4.684h1.922zm.912 6.546v-1.33l3.107-2.876c.264-.256.486-.486.665-.69.181-.205.319-.405.413-.601.094-.199.141-.413.141-.644 0-.255-.059-.475-.175-.66a1.154 1.154 0 0 0-.477-.43 1.5 1.5 0 0 0-.687-.154c-.267 0-.5.054-.698.162a1.117 1.117 0 0 0-.461.465 1.505 1.505 0 0 0-.162.72h-1.751c0-.571.129-1.067.388-1.488a2.59 2.59 0 0 1 1.086-.975c.466-.23 1.003-.346 1.611-.346.625 0 1.169.111 1.632.333.466.218.828.522 1.087.912.259.389.388.835.388 1.338 0 .33-.066.655-.196.976-.128.32-.357.677-.686 1.07-.33.389-.794.856-1.394 1.401l-1.274 1.249v.06h3.665V89h-6.222z"/><circle cx="311" cy="86" r="7" fill="#FF549C"/><path fill="#000" d="M328.759 89v-8.727h3.443c.662 0 1.226.126 1.691.379.466.25.821.598 1.066 1.044.247.443.371.955.371 1.534 0 .58-.125 1.091-.375 1.534a2.59 2.59 0 0 1-1.087 1.036c-.472.247-1.043.37-1.713.37h-2.195v-1.478h1.897c.355 0 .647-.061.877-.183.233-.126.407-.297.52-.516a1.61 1.61 0 0 0 .175-.763c0-.29-.058-.543-.175-.758a1.163 1.163 0 0 0-.52-.507c-.233-.123-.528-.184-.886-.184h-1.244V89h-1.845zm9.426.124a2.73 2.73 0 0 1-1.117-.218 1.792 1.792 0 0 1-.775-.652c-.188-.29-.282-.65-.282-1.082 0-.364.067-.67.201-.916.133-.248.315-.446.545-.597.23-.15.492-.264.784-.34.296-.078.605-.132.929-.163.381-.04.688-.077.921-.11.233-.038.402-.092.507-.163a.356.356 0 0 0 .157-.315v-.025c0-.27-.085-.48-.255-.627-.168-.147-.407-.221-.716-.221-.327 0-.587.072-.78.217a1.005 1.005 0 0 0-.384.537l-1.679-.136a2.29 2.29 0 0 1 .503-1.032c.25-.292.573-.517.968-.673.397-.16.858-.239 1.38-.239.364 0 .712.043 1.044.128.336.085.632.218.891.397.261.178.467.409.618.69.15.278.226.612.226 1.001V89h-1.722v-.908h-.051a1.847 1.847 0 0 1-.422.541 1.952 1.952 0 0 1-.635.363 2.618 2.618 0 0 1-.856.128zm.52-1.253c.267 0 .502-.053.707-.158.204-.108.365-.253.481-.435.117-.181.175-.387.175-.618v-.694a.983.983 0 0 1-.234.102 4.312 4.312 0 0 1-.328.081c-.122.023-.245.044-.367.064l-.332.047a2.245 2.245 0 0 0-.558.15.887.887 0 0 0-.371.276.675.675 0 0 0-.132.426c0 .247.089.436.268.567.182.128.412.192.691.192zm6.389-2.655V89h-1.815v-6.546h1.73v1.155h.077a1.83 1.83 0 0 1 .729-.903c.341-.225.754-.337 1.24-.337.454 0 .851.1 1.189.299.338.198.6.483.788.852.187.366.281.804.281 1.312V89h-1.815v-3.844c.003-.4-.1-.713-.307-.937-.207-.227-.493-.341-.856-.341a1.3 1.3 0 0 0-.648.157c-.185.106-.33.259-.435.46a1.6 1.6 0 0 0-.158.72zm8.607 3.912c-.67 0-1.247-.142-1.73-.426a2.885 2.885 0 0 1-1.108-1.194c-.255-.508-.383-1.093-.383-1.755 0-.67.129-1.259.388-1.764a2.879 2.879 0 0 1 1.112-1.19c.48-.286 1.051-.43 1.713-.43.571 0 1.071.104 1.5.311.429.208.768.499 1.018.874s.388.815.414 1.321h-1.713c-.049-.327-.177-.59-.384-.788-.204-.202-.473-.303-.805-.303a1.22 1.22 0 0 0-.738.23c-.207.15-.369.37-.485.66-.117.29-.175.641-.175 1.053 0 .418.057.773.17 1.066.117.292.28.515.49.669.211.153.456.23.738.23a1.2 1.2 0 0 0 .558-.128c.168-.085.305-.209.413-.37a1.43 1.43 0 0 0 .218-.593h1.713c-.029.5-.165.94-.409 1.32a2.477 2.477 0 0 1-1.002.887c-.426.213-.93.32-1.513.32zm5.952-.004c-.417 0-.789-.073-1.116-.218a1.8 1.8 0 0 1-.776-.652c-.187-.29-.281-.65-.281-1.082 0-.364.067-.67.2-.916.134-.248.316-.446.546-.597.23-.15.491-.264.784-.34.295-.078.605-.132.929-.163.381-.04.687-.077.92-.11.233-.038.402-.092.507-.163a.354.354 0 0 0 .158-.315v-.025c0-.27-.085-.48-.256-.627-.167-.147-.406-.221-.715-.221-.327 0-.587.072-.78.217a1.005 1.005 0 0 0-.384.537l-1.679-.136a2.28 2.28 0 0 1 .503-1.032c.25-.292.573-.517.967-.673.398-.16.858-.239 1.381-.239.364 0 .712.043 1.044.128.335.085.632.218.891.397.261.178.467.409.618.69.15.278.225.612.225 1.001V89h-1.721v-.908h-.051a1.847 1.847 0 0 1-.422.541 1.952 1.952 0 0 1-.635.363 2.624 2.624 0 0 1-.857.128zm.52-1.253c.267 0 .503-.053.708-.158.204-.108.365-.253.481-.435.117-.181.175-.387.175-.618v-.694a.983.983 0 0 1-.234.102 4.229 4.229 0 0 1-.329.081 16.11 16.11 0 0 1-.366.064l-.332.047c-.213.031-.4.08-.559.15a.89.89 0 0 0-.37.276.676.676 0 0 0-.133.426c0 .247.09.436.269.567.182.128.412.192.69.192zm6.22-.754.004-2.178h.264l2.097-2.484h2.084l-2.817 3.29h-.431l-1.201 1.371zM364.748 89v-8.727h1.815V89h-1.815zm4.091 0-1.926-2.85 1.21-1.284L370.965 89h-2.126zm5.607.128c-.674 0-1.253-.136-1.739-.41a2.798 2.798 0 0 1-1.116-1.167c-.262-.505-.392-1.104-.392-1.794 0-.673.13-1.264.392-1.773a2.896 2.896 0 0 1 1.103-1.188c.478-.285 1.037-.427 1.679-.427.432 0 .834.07 1.206.21.375.136.702.342.98.617.282.276.5.622.657 1.04.156.415.234.9.234 1.457v.499h-5.527v-1.125h3.818c0-.262-.057-.493-.17-.695a1.229 1.229 0 0 0-.473-.473 1.352 1.352 0 0 0-.695-.175c-.276 0-.52.064-.733.192-.21.125-.375.294-.494.507-.12.21-.181.445-.183.703v1.07c0 .324.059.604.179.84.122.235.294.417.515.545.222.128.485.192.788.192.202 0 .387-.029.554-.085.168-.057.312-.142.431-.256.119-.114.21-.253.273-.418l1.679.111c-.086.403-.26.756-.525 1.057a2.626 2.626 0 0 1-1.014.699c-.412.165-.888.247-1.427.247zm9.635-4.807-1.662.102a.864.864 0 0 0-.184-.383.967.967 0 0 0-.37-.277 1.261 1.261 0 0 0-.541-.107c-.282 0-.519.06-.712.18-.193.116-.29.272-.29.468 0 .156.063.288.188.396.125.108.339.195.643.26l1.185.239c.636.13 1.111.34 1.423.63.313.29.469.671.469 1.143 0 .429-.127.805-.38 1.129-.25.324-.593.577-1.031.758-.434.18-.936.269-1.504.269-.866 0-1.557-.18-2.071-.541a2.11 2.11 0 0 1-.899-1.483l1.785-.094a.919.919 0 0 0 .392.605c.208.136.473.205.797.205.318 0 .574-.061.767-.184.196-.125.296-.285.299-.481a.503.503 0 0 0-.209-.405c-.137-.108-.347-.19-.631-.247l-1.133-.226c-.64-.128-1.115-.35-1.428-.665-.31-.315-.464-.717-.464-1.206 0-.42.113-.782.34-1.086.231-.304.553-.539.968-.703.417-.165.906-.248 1.466-.248.826 0 1.477.175 1.951.525.478.349.756.825.836 1.427zM386.664 89l-1.781-6.546h1.836l1.015 4.398h.059l1.057-4.398h1.803l1.074 4.373h.055l.997-4.373h1.833L392.835 89h-1.922l-1.125-4.117h-.081L388.582 89h-1.918zm10.782.124c-.417 0-.789-.073-1.116-.218a1.8 1.8 0 0 1-.776-.652c-.187-.29-.281-.65-.281-1.082 0-.364.067-.67.2-.916.134-.248.316-.446.546-.597.23-.15.491-.264.784-.34.295-.078.605-.132.929-.163.381-.04.687-.077.92-.11.233-.038.402-.092.507-.163a.354.354 0 0 0 .158-.315v-.025c0-.27-.085-.48-.256-.627-.167-.147-.406-.221-.715-.221-.327 0-.587.072-.78.217a1.005 1.005 0 0 0-.384.537l-1.679-.136a2.28 2.28 0 0 1 .503-1.032 2.41 2.41 0 0 1 .967-.673c.398-.16.858-.239 1.381-.239.364 0 .712.043 1.044.128.335.085.632.218.891.397.261.178.467.409.618.69.15.278.225.612.225 1.001V89h-1.721v-.908h-.051a1.847 1.847 0 0 1-.422.541 1.952 1.952 0 0 1-.635.363 2.624 2.624 0 0 1-.857.128zm.52-1.253c.267 0 .503-.053.708-.158.204-.108.365-.253.481-.435.117-.181.175-.387.175-.618v-.694a.983.983 0 0 1-.234.102 4.229 4.229 0 0 1-.329.081 16.11 16.11 0 0 1-.366.064l-.332.047c-.214.031-.4.08-.559.15a.89.89 0 0 0-.37.276.67.67 0 0 0-.133.426c0 .247.09.436.269.567.182.128.412.192.69.192zm4.575 3.584v-9h1.79v1.099h.081c.079-.176.194-.355.345-.537a1.81 1.81 0 0 1 .596-.46c.247-.125.554-.188.921-.188.477 0 .917.125 1.321.375.403.248.726.621.967 1.121.242.497.362 1.12.362 1.87 0 .73-.118 1.347-.353 1.85-.233.5-.551.88-.955 1.138-.4.256-.849.383-1.346.383-.353 0-.652-.058-.9-.174a1.857 1.857 0 0 1-.6-.44 2.197 2.197 0 0 1-.358-.54h-.056v3.502h-1.815zm1.777-5.728c0 .39.054.729.162 1.019.108.29.264.515.469.677.204.16.453.239.745.239.296 0 .546-.081.75-.243a1.51 1.51 0 0 0 .465-.682c.108-.292.162-.629.162-1.01 0-.378-.053-.71-.158-.997a1.488 1.488 0 0 0-.464-.673 1.18 1.18 0 0 0-.755-.243 1.2 1.2 0 0 0-.75.234 1.475 1.475 0 0 0-.464.665 2.876 2.876 0 0 0-.162 1.014z"/><circle cx="450" cy="86" r="7" fill="#BC24C9"/><path fill="#000" d="M466.426 82.794v-1.521h7.168v1.521h-2.672V90h-1.824v-7.206h-2.672zM474.774 90v-8.727h1.845v3.6h3.746v-3.6h1.841V90h-1.841v-3.605h-3.746V90h-1.845zm16.973-4.364c0 .952-.18 1.762-.541 2.43a3.755 3.755 0 0 1-1.466 1.53c-.616.349-1.31.523-2.079.523-.776 0-1.472-.176-2.089-.528-.616-.352-1.103-.862-1.461-1.53-.358-.668-.537-1.476-.537-2.425 0-.951.179-1.761.537-2.429.358-.667.845-1.176 1.461-1.525.617-.353 1.313-.529 2.089-.529.769 0 1.463.176 2.079.529.619.35 1.108.858 1.466 1.525.361.668.541 1.478.541 2.43zm-1.871 0c0-.616-.092-1.136-.277-1.56-.181-.423-.438-.744-.771-.962a2.073 2.073 0 0 0-1.167-.329c-.447 0-.836.11-1.168.329-.332.218-.591.54-.776.963-.181.423-.272.943-.272 1.56 0 .616.091 1.136.272 1.559.185.423.444.744.776.963.332.219.721.328 1.168.328.446 0 .835-.11 1.167-.328.333-.219.59-.54.771-.963.185-.423.277-.943.277-1.56zM493.114 90v-8.727h3.443c.659 0 1.222.118 1.688.353.468.233.825.564 1.069.993.247.427.371.928.371 1.505 0 .58-.125 1.078-.375 1.495a2.43 2.43 0 0 1-1.087.955c-.471.222-1.042.332-1.713.332h-2.305v-1.483h2.007c.352 0 .645-.048.878-.145.233-.096.406-.241.52-.434.116-.193.174-.433.174-.72 0-.29-.058-.534-.174-.733a1.076 1.076 0 0 0-.524-.452c-.233-.105-.527-.158-.883-.158h-1.244V90h-1.845zm4.713-3.972L499.996 90h-2.037l-2.122-3.972h1.99zm7.896-2.245a1.08 1.08 0 0 0-.439-.802c-.258-.19-.609-.285-1.052-.285-.301 0-.556.043-.763.128a1.075 1.075 0 0 0-.477.345.83.83 0 0 0-.162.503.716.716 0 0 0 .098.409c.074.116.175.217.302.302a2.3 2.3 0 0 0 .444.218c.167.06.346.11.537.153l.784.188c.38.085.73.199 1.048.34.318.143.594.317.827.525.233.207.413.451.541.733.131.281.197.603.2.967-.003.534-.139.997-.409 1.39-.267.388-.653.691-1.159.907-.503.213-1.109.32-1.82.32-.704 0-1.318-.108-1.841-.324-.519-.216-.926-.536-1.218-.96-.29-.425-.442-.952-.456-1.58h1.785c.02.293.104.537.252.733.15.193.351.34.601.439.252.096.538.145.856.145.313 0 .584-.046.814-.137a1.24 1.24 0 0 0 .541-.379.875.875 0 0 0 .192-.558.723.723 0 0 0-.175-.495 1.318 1.318 0 0 0-.503-.34 5.093 5.093 0 0 0-.805-.256l-.95-.239c-.736-.179-1.317-.459-1.743-.84-.426-.38-.638-.893-.635-1.537-.003-.529.138-.99.422-1.386.287-.394.68-.703 1.18-.924.5-.222 1.068-.333 1.705-.333.647 0 1.213.111 1.696.333.485.221.863.53 1.133.924.27.395.409.853.418 1.373h-1.769zM510.109 90l-1.781-6.546h1.837l1.014 4.398h.06l1.056-4.398h1.803l1.074 4.373h.055l.997-4.373h1.833L516.28 90h-1.922l-1.125-4.117h-.081L512.027 90h-1.918zm10.783.124a2.73 2.73 0 0 1-1.117-.218 1.798 1.798 0 0 1-.775-.652c-.188-.29-.282-.65-.282-1.082 0-.364.067-.67.201-.916.133-.248.315-.446.545-.597.23-.15.492-.264.784-.34.296-.078.605-.132.929-.163.381-.04.688-.077.921-.11.233-.038.402-.092.507-.163a.356.356 0 0 0 .157-.315v-.025c0-.27-.085-.48-.255-.627-.168-.147-.407-.221-.716-.221-.327 0-.587.072-.78.217a1.005 1.005 0 0 0-.384.537l-1.678-.136a2.28 2.28 0 0 1 .502-1.032c.25-.292.573-.517.968-.673.397-.16.858-.239 1.38-.239.364 0 .712.043 1.044.128.336.085.632.218.891.397.261.178.467.409.618.69.15.278.226.612.226 1.001V90h-1.722v-.908h-.051a1.847 1.847 0 0 1-.422.541 1.952 1.952 0 0 1-.635.363 2.618 2.618 0 0 1-.856.128zm.52-1.253c.267 0 .502-.053.707-.158.205-.108.365-.253.481-.435.117-.181.175-.387.175-.618v-.694a.983.983 0 0 1-.234.102 4.312 4.312 0 0 1-.328.081c-.122.023-.245.044-.367.064l-.332.047a2.245 2.245 0 0 0-.558.15.894.894 0 0 0-.371.276.675.675 0 0 0-.132.426c0 .247.089.436.268.567.182.128.412.192.691.192zm4.574 3.584v-9h1.79v1.099h.081c.079-.176.194-.355.345-.537.153-.185.352-.338.597-.46.247-.125.554-.188.92-.188.477 0 .918.125 1.321.375.404.248.726.621.967 1.121.242.497.363 1.12.363 1.87 0 .73-.118 1.347-.354 1.85-.233.5-.551.88-.955 1.138-.4.256-.849.383-1.346.383-.352 0-.652-.058-.899-.174a1.851 1.851 0 0 1-.601-.44 2.226 2.226 0 0 1-.358-.54h-.056v3.502h-1.815zm1.777-5.728c0 .39.054.729.162 1.019.108.29.264.515.469.677.204.16.453.239.746.239.295 0 .545-.081.75-.243.204-.165.359-.392.464-.682.108-.292.162-.629.162-1.01 0-.378-.053-.71-.158-.997a1.488 1.488 0 0 0-.464-.673 1.178 1.178 0 0 0-.754-.243c-.296 0-.546.078-.75.234a1.469 1.469 0 0 0-.465.665 2.876 2.876 0 0 0-.162 1.014z"/><circle cx="573" cy="86" r="7" fill="#459F36"/><path fill="#000" d="M596.459 83.328h-1.867a1.825 1.825 0 0 0-.208-.643 1.662 1.662 0 0 0-.405-.486 1.783 1.783 0 0 0-.571-.307 2.187 2.187 0 0 0-.695-.106c-.452 0-.845.112-1.18.336-.336.222-.595.546-.78.972-.185.423-.277.937-.277 1.542 0 .623.092 1.145.277 1.569.187.423.449.742.784.958a2.1 2.1 0 0 0 1.163.324c.247 0 .476-.032.686-.098a1.642 1.642 0 0 0 .976-.75c.111-.182.188-.389.23-.622l1.867.009c-.048.4-.169.787-.362 1.159-.191.369-.448.7-.772.993a3.63 3.63 0 0 1-1.15.69 4.231 4.231 0 0 1-1.505.251c-.778 0-1.474-.176-2.088-.528-.61-.352-1.093-.862-1.448-1.53-.353-.668-.529-1.476-.529-2.425 0-.951.179-1.761.537-2.429.358-.667.844-1.176 1.457-1.525.614-.353 1.304-.529 2.071-.529.506 0 .975.071 1.407.213.434.142.819.35 1.155.623.335.27.607.6.818.992.213.393.349.841.409 1.347zm5.486 2.885v-3.758h1.816V89h-1.743v-1.189h-.068a1.935 1.935 0 0 1-.738.925c-.341.233-.757.35-1.248.35-.438 0-.823-.1-1.155-.3a2.056 2.056 0 0 1-.78-.847c-.185-.367-.278-.805-.281-1.317v-4.168h1.815v3.844c.003.387.107.692.311.916.205.225.479.337.823.337.218 0 .423-.05.613-.149a1.17 1.17 0 0 0 .461-.452c.119-.199.177-.444.174-.737zM605.213 89v-6.546h1.76v1.143h.068c.119-.407.319-.713.601-.92.281-.211.605-.316.971-.316a2.758 2.758 0 0 1 .571.064v1.61a2.366 2.366 0 0 0-.353-.068 3.19 3.19 0 0 0-.414-.03 1.46 1.46 0 0 0-.716.175 1.287 1.287 0 0 0-.494.478 1.38 1.38 0 0 0-.179.707V89h-1.815zm11.211-6.546L614.136 89h-2.045l-2.289-6.546h1.918l1.359 4.684h.068l1.355-4.684h1.922zm3.701 6.674c-.673 0-1.252-.136-1.738-.41a2.807 2.807 0 0 1-1.117-1.167c-.261-.505-.392-1.104-.392-1.794 0-.673.131-1.264.392-1.773.262-.508.63-.904 1.104-1.188.477-.285 1.037-.427 1.679-.427.432 0 .834.07 1.206.21.375.136.702.342.98.617.281.276.5.622.656 1.04.156.415.235.9.235 1.457v.499h-5.527v-1.125h3.818c0-.262-.057-.493-.171-.695a1.215 1.215 0 0 0-.473-.473 1.348 1.348 0 0 0-.694-.175c-.276 0-.52.064-.733.192-.21.125-.375.294-.495.507-.119.21-.18.445-.183.703v1.07c0 .324.06.604.179.84.122.235.294.417.516.545.221.128.484.192.788.192.202 0 .387-.029.554-.085a1.107 1.107 0 0 0 .703-.673l1.679.11c-.085.403-.26.756-.524 1.057a2.626 2.626 0 0 1-1.014.699c-.412.165-.888.247-1.428.247z"/><circle cx="667" cy="86" r="7" fill="#FFD362"/><path fill="#000" d="M684.759 89v-8.727h3.443c.659 0 1.221.118 1.687.353.469.233.825.564 1.07.993.247.427.371.928.371 1.505 0 .58-.125 1.078-.375 1.495-.25.415-.613.733-1.087.955-.472.222-1.043.332-1.713.332h-2.306v-1.483h2.008c.352 0 .644-.048.877-.145.233-.096.407-.241.52-.434.117-.193.175-.433.175-.72 0-.29-.058-.534-.175-.733a1.068 1.068 0 0 0-.524-.452c-.233-.105-.527-.158-.882-.158h-1.244V89h-1.845zm4.713-3.972L691.641 89h-2.037l-2.122-3.972h1.99zm4.994 4.096a2.73 2.73 0 0 1-1.117-.218 1.798 1.798 0 0 1-.775-.652c-.188-.29-.281-.65-.281-1.082 0-.364.066-.67.2-.916.133-.248.315-.446.545-.597.23-.15.492-.264.784-.34.296-.078.606-.132.929-.163.381-.04.688-.077.921-.11.233-.038.402-.092.507-.163a.356.356 0 0 0 .158-.315v-.025c0-.27-.086-.48-.256-.627-.168-.147-.406-.221-.716-.221-.327 0-.587.072-.78.217a.998.998 0 0 0-.383.537l-1.679-.136a2.28 2.28 0 0 1 .503-1.032 2.41 2.41 0 0 1 .967-.673c.398-.16.858-.239 1.381-.239.363 0 .711.043 1.044.128.335.085.632.218.89.397.262.178.468.409.618.69.151.278.226.612.226 1.001V89h-1.722v-.908h-.051a1.83 1.83 0 0 1-.422.541 1.942 1.942 0 0 1-.635.363 2.618 2.618 0 0 1-.856.128zm.52-1.253c.267 0 .503-.053.707-.158.205-.108.365-.253.482-.435a1.12 1.12 0 0 0 .174-.618v-.694a.965.965 0 0 1-.234.102 4.312 4.312 0 0 1-.328.081c-.122.023-.244.044-.367.064l-.332.047a2.245 2.245 0 0 0-.558.15.894.894 0 0 0-.371.276.675.675 0 0 0-.132.426c0 .247.089.436.268.567.182.128.412.192.691.192zm5.461 3.584c-.23 0-.446-.019-.648-.056a2.334 2.334 0 0 1-.494-.132l.409-1.355c.213.065.405.1.575.106a.733.733 0 0 0 .448-.119c.127-.085.231-.23.311-.434l.106-.278-2.348-6.733h1.909l1.355 4.807h.068l1.368-4.806h1.922l-2.544 7.252c-.122.353-.288.66-.498.92a2.051 2.051 0 0 1-.789.61c-.318.145-.701.218-1.15.218zm8.111-2.349a2.47 2.47 0 0 1-1.351-.383c-.4-.258-.718-.638-.954-1.138-.233-.503-.35-1.12-.35-1.85 0-.75.121-1.373.363-1.87.241-.5.562-.873.963-1.12.403-.25.845-.376 1.325-.376.366 0 .672.063.916.188.247.122.446.275.597.46.153.182.27.36.349.537h.056v-3.281h1.811V89h-1.79v-1.048h-.077a2.34 2.34 0 0 1-.362.54 1.799 1.799 0 0 1-.601.44c-.244.116-.542.174-.895.174zm.576-1.444c.292 0 .539-.08.741-.239a1.51 1.51 0 0 0 .469-.677c.111-.29.166-.63.166-1.019 0-.389-.054-.727-.162-1.014a1.453 1.453 0 0 0-.469-.665 1.19 1.19 0 0 0-.745-.234c-.299 0-.55.08-.755.243a1.488 1.488 0 0 0-.464.673c-.105.287-.158.62-.158.997 0 .381.053.718.158 1.01.108.29.263.517.464.682.205.162.456.243.755.243zM713.775 89v-6.546h1.816V89h-1.816zm.912-7.39a.984.984 0 0 1-.694-.268.868.868 0 0 1-.286-.652.85.85 0 0 1 .286-.643.976.976 0 0 1 .694-.273c.27 0 .5.091.69.273.194.179.29.393.29.643 0 .253-.096.47-.29.652a.97.97 0 0 1-.69.269zm6.555 4.603v-3.758h1.816V89h-1.743v-1.189h-.069a1.927 1.927 0 0 1-.737.925c-.341.233-.757.35-1.248.35-.438 0-.823-.1-1.155-.3a2.043 2.043 0 0 1-.78-.847c-.185-.367-.278-.805-.281-1.317v-4.168h1.815v3.844c.003.387.107.692.311.916.205.225.479.337.823.337.218 0 .423-.05.613-.149.191-.102.344-.253.46-.452.12-.199.178-.444.175-.737zM724.51 89v-6.546h1.73v1.155h.076a1.82 1.82 0 0 1 .682-.907c.318-.222.699-.333 1.142-.333.449 0 .831.112 1.147.337.315.222.525.523.63.903h.068c.134-.375.375-.674.725-.899.352-.227.768-.34 1.248-.34.611 0 1.107.194 1.488.583.383.386.575.935.575 1.645V89h-1.811v-4.044c0-.364-.097-.636-.29-.818a1.016 1.016 0 0 0-.724-.273c-.33 0-.587.105-.772.315-.184.208-.277.482-.277.823V89h-1.76v-4.082c0-.321-.092-.577-.277-.767-.181-.19-.421-.286-.72-.286a1 1 0 0 0-.545.154c-.159.099-.286.24-.379.421-.094.18-.141.39-.141.631V89h-1.815z"/><circle cx="757" cy="86" r="7" fill="#6F86C3"/><path fill="#000" d="M782.459 83.328h-1.867a1.825 1.825 0 0 0-.208-.643 1.662 1.662 0 0 0-.405-.486 1.783 1.783 0 0 0-.571-.307 2.187 2.187 0 0 0-.695-.106c-.452 0-.845.112-1.18.336-.336.222-.595.546-.78.972-.185.423-.277.937-.277 1.542 0 .623.092 1.145.277 1.569.187.423.449.742.784.958a2.1 2.1 0 0 0 1.163.324c.247 0 .476-.032.686-.098a1.642 1.642 0 0 0 .976-.75c.111-.182.188-.389.23-.622l1.867.009c-.048.4-.169.787-.362 1.159-.191.369-.448.7-.772.993a3.63 3.63 0 0 1-1.15.69 4.231 4.231 0 0 1-1.505.251c-.778 0-1.474-.176-2.088-.528-.61-.352-1.093-.862-1.448-1.53-.353-.668-.529-1.476-.529-2.425 0-.951.179-1.761.537-2.429.358-.667.844-1.176 1.457-1.525.614-.353 1.304-.529 2.071-.529.506 0 .975.071 1.407.213.434.142.819.35 1.155.623.335.27.607.6.818.992.213.393.349.841.409 1.347zm3.155 5.796c-.417 0-.789-.073-1.116-.218a1.8 1.8 0 0 1-.776-.652c-.187-.29-.281-.65-.281-1.082 0-.364.067-.67.2-.916.134-.248.316-.446.546-.597.23-.15.491-.264.784-.34.295-.078.605-.132.929-.163.381-.04.687-.077.92-.11.233-.038.402-.092.507-.163a.354.354 0 0 0 .158-.315v-.025c0-.27-.085-.48-.256-.627-.167-.147-.406-.221-.716-.221-.326 0-.586.072-.779.217a1 1 0 0 0-.384.537l-1.679-.136a2.28 2.28 0 0 1 .503-1.032 2.41 2.41 0 0 1 .967-.673c.398-.16.858-.239 1.381-.239.364 0 .712.043 1.044.128.335.085.632.218.891.397.261.178.467.409.618.69.15.278.225.612.225 1.001V89h-1.721v-.908h-.051a1.847 1.847 0 0 1-.422.541 1.952 1.952 0 0 1-.635.363 2.624 2.624 0 0 1-.857.128zm.52-1.253c.267 0 .503-.053.708-.158.204-.108.365-.253.481-.435.117-.181.175-.387.175-.618v-.694a.975.975 0 0 1-.235.102 4.087 4.087 0 0 1-.328.081 16.11 16.11 0 0 1-.366.064l-.332.047c-.214.031-.4.08-.559.15a.89.89 0 0 0-.37.276.67.67 0 0 0-.133.426c0 .247.09.436.269.567.182.128.412.192.69.192zM790.709 89v-6.546h1.73v1.155h.077c.136-.383.363-.686.681-.907.319-.222.699-.333 1.142-.333.449 0 .831.112 1.147.337.315.222.525.523.63.903h.069a1.74 1.74 0 0 1 .724-.899c.352-.227.769-.34 1.249-.34.61 0 1.106.194 1.487.583.383.386.575.935.575 1.645V89h-1.811v-4.044c0-.364-.096-.636-.29-.818a1.014 1.014 0 0 0-.724-.273c-.33 0-.587.105-.771.315-.185.208-.277.482-.277.823V89h-1.76v-4.082c0-.321-.093-.577-.277-.767-.182-.19-.422-.286-.721-.286a1 1 0 0 0-.545.154c-.159.099-.285.24-.379.421-.094.18-.141.39-.141.631V89h-1.815zm13.928.128c-.673 0-1.253-.136-1.739-.41a2.798 2.798 0 0 1-1.116-1.167c-.261-.505-.392-1.104-.392-1.794 0-.673.131-1.264.392-1.773a2.892 2.892 0 0 1 1.104-1.188c.477-.285 1.037-.427 1.679-.427.431 0 .833.07 1.206.21.375.136.701.342.98.617.281.276.5.622.656 1.04.156.415.234.9.234 1.457v.499h-5.527v-1.125h3.819c0-.262-.057-.493-.171-.695a1.222 1.222 0 0 0-.473-.473 1.35 1.35 0 0 0-.695-.175c-.275 0-.519.064-.732.192a1.345 1.345 0 0 0-.495.507c-.119.21-.18.445-.183.703v1.07c0 .324.06.604.179.84.122.235.294.417.516.545.221.128.484.192.788.192.202 0 .386-.029.554-.085a1.098 1.098 0 0 0 .703-.673l1.679.11c-.085.403-.26.756-.524 1.057a2.65 2.65 0 0 1-1.014.699c-.412.165-.888.247-1.428.247zm6.004-8.855V89h-1.815v-8.727h1.815zm4.412 8.855c-.662 0-1.234-.14-1.717-.422a2.887 2.887 0 0 1-1.113-1.185c-.261-.508-.392-1.098-.392-1.768 0-.676.131-1.267.392-1.773a2.853 2.853 0 0 1 1.113-1.184c.483-.285 1.055-.427 1.717-.427.662 0 1.233.142 1.713.427a2.84 2.84 0 0 1 1.116 1.184c.262.506.393 1.097.393 1.773 0 .67-.131 1.26-.393 1.768a2.88 2.88 0 0 1-1.116 1.185c-.48.281-1.051.422-1.713.422zm.008-1.406c.302 0 .553-.086.755-.256.201-.173.353-.41.456-.707.105-.299.157-.638.157-1.019 0-.38-.052-.72-.157-1.018a1.598 1.598 0 0 0-.456-.708 1.118 1.118 0 0 0-.755-.26c-.304 0-.559.087-.767.26a1.61 1.61 0 0 0-.464.708 3.14 3.14 0 0 0-.154 1.018c0 .38.052.72.154 1.019a1.6 1.6 0 0 0 .464.707c.208.17.463.256.767.256zm7.875-5.267v1.363h-3.941v-1.364h3.941zm-3.046-1.569h1.815v6.103c0 .167.025.298.077.392.051.09.122.154.213.191a.873.873 0 0 0 .324.056c.085 0 .17-.007.255-.022l.196-.038.286 1.351a5.103 5.103 0 0 1-.384.098c-.165.04-.365.064-.601.073-.437.016-.821-.042-1.15-.175a1.606 1.606 0 0 1-.763-.622c-.182-.282-.271-.637-.268-1.066v-6.34zm8.617-.613 2.109 6.63h.081l2.114-6.63h2.046L831.848 89h-2.378l-3.013-8.727h2.05zm10.575 8.846c-.637 0-1.203-.11-1.701-.328-.494-.221-.885-.525-1.171-.912a2.282 2.282 0 0 1-.439-1.346h1.858a.97.97 0 0 0 .208.562c.131.16.304.283.52.37.216.089.459.133.729.133.281 0 .53-.05.746-.15.216-.099.385-.236.507-.412.122-.177.183-.38.183-.61 0-.233-.065-.439-.196-.618a1.257 1.257 0 0 0-.554-.426 2.156 2.156 0 0 0-.852-.153h-.814v-1.355h.814c.278 0 .524-.049.737-.145.216-.097.383-.23.503-.4.119-.174.179-.376.179-.606a1.048 1.048 0 0 0-.593-.967c-.184-.094-.4-.14-.647-.14-.25 0-.479.044-.686.135a1.197 1.197 0 0 0-.499.38.994.994 0 0 0-.2.58h-1.769a2.27 2.27 0 0 1 .431-1.33 2.789 2.789 0 0 1 1.125-.9 3.803 3.803 0 0 1 1.606-.328c.603 0 1.13.11 1.581.328.452.22.803.515 1.053.887.253.37.378.784.375 1.244.003.489-.149.897-.456 1.223-.304.327-.7.534-1.189.622v.069c.642.082 1.131.305 1.466.669.338.36.505.812.503 1.355.002.497-.141.939-.431 1.325-.287.386-.683.69-1.189.912-.505.221-1.085.332-1.738.332z"/><circle cx="42" cy="118" r="7" fill="#555"/><path fill="#000" d="M63.053 117.966h1.568l.788 1.014.776.904 1.461 1.832h-1.721l-1.006-1.236-.516-.733-1.35-1.781zm4.725-1.33c0 .952-.18 1.762-.54 2.429a3.75 3.75 0 0 1-1.467 1.53c-.616.35-1.31.524-2.08.524-.775 0-1.47-.176-2.087-.528-.617-.352-1.104-.862-1.462-1.53-.358-.668-.537-1.476-.537-2.425 0-.951.18-1.761.537-2.429.358-.667.845-1.176 1.462-1.525.616-.352 1.312-.529 2.088-.529.77 0 1.463.177 2.08.529.619.349 1.107.858 1.465 1.525.361.668.541 1.478.541 2.429zm-1.87 0c0-.616-.093-1.136-.277-1.559-.182-.424-.44-.745-.772-.963a2.073 2.073 0 0 0-1.167-.328c-.446 0-.836.109-1.168.328-.332.218-.59.539-.775.963-.182.423-.273.943-.273 1.559 0 .617.09 1.137.273 1.56.184.423.443.744.775.963.332.219.722.328 1.168.328.446 0 .835-.109 1.167-.328.333-.219.59-.54.772-.963.184-.423.277-.943.277-1.56zm7.4 1.577v-3.758h1.816V121H73.38v-1.189h-.068a1.932 1.932 0 0 1-.737.925c-.341.233-.757.349-1.249.349-.437 0-.822-.099-1.155-.298a2.054 2.054 0 0 1-.78-.848c-.184-.367-.278-.805-.28-1.317v-4.167h1.815v3.843c.002.387.106.692.31.916.205.225.48.337.823.337.219 0 .423-.05.614-.149a1.17 1.17 0 0 0 .46-.452c.12-.199.177-.444.175-.737zM76.577 121v-6.545h1.815V121h-1.815zm.912-7.389a.987.987 0 0 1-.695-.269.87.87 0 0 1-.285-.652c0-.25.095-.464.285-.643a.977.977 0 0 1 .695-.273c.27 0 .5.091.69.273.193.179.29.393.29.643a.863.863 0 0 1-.29.652.972.972 0 0 1-.69.269zm5.315 7.517c-.67 0-1.247-.142-1.73-.426a2.884 2.884 0 0 1-1.108-1.193c-.256-.509-.384-1.094-.384-1.756 0-.671.13-1.259.388-1.764a2.878 2.878 0 0 1 1.112-1.189c.48-.287 1.051-.431 1.713-.431.571 0 1.071.104 1.5.311.43.208.769.499 1.019.874.25.375.388.815.413 1.321h-1.713a1.322 1.322 0 0 0-.383-.788c-.205-.202-.473-.303-.806-.303a1.22 1.22 0 0 0-.737.23c-.207.151-.37.371-.486.661-.116.289-.174.64-.174 1.052 0 .418.056.773.17 1.066.116.292.28.515.49.669.21.153.456.23.737.23a1.2 1.2 0 0 0 .558-.128c.168-.085.306-.209.414-.371a1.42 1.42 0 0 0 .217-.592h1.713c-.028.5-.165.94-.409 1.321a2.469 2.469 0 0 1-1.001.886c-.426.213-.93.32-1.513.32zm5.73-2.012.005-2.177h.264l2.096-2.484h2.084l-2.817 3.289h-.43l-1.202 1.372zM86.888 121v-8.727h1.816V121h-1.816zm4.091 0-1.926-2.851 1.21-1.283L93.106 121h-2.127zm8.34-4.679-1.662.102a.854.854 0 0 0-.183-.383.965.965 0 0 0-.371-.277 1.26 1.26 0 0 0-.541-.107c-.281 0-.519.06-.712.179-.193.117-.29.273-.29.469 0 .156.063.288.188.396.125.108.34.195.643.26l1.185.239c.636.131 1.11.341 1.423.631.313.289.469.67.469 1.142 0 .429-.126.805-.38 1.129-.25.324-.593.577-1.03.758-.435.179-.937.269-1.505.269-.866 0-1.557-.181-2.07-.541a2.11 2.11 0 0 1-.9-1.483l1.786-.094a.917.917 0 0 0 .392.605c.207.136.473.205.797.205.318 0 .573-.061.767-.184.196-.125.295-.285.298-.481a.501.501 0 0 0-.209-.405c-.136-.108-.347-.19-.63-.247l-1.134-.226c-.64-.128-1.115-.349-1.428-.665-.31-.315-.464-.717-.464-1.206 0-.42.113-.782.34-1.086.23-.304.553-.539.968-.704.418-.164.906-.247 1.466-.247.827 0 1.477.175 1.952.524.477.35.755.826.835 1.428zm2.583 4.679-1.781-6.545h1.837l1.014 4.397h.06l1.056-4.397h1.803l1.074 4.372h.055l.997-4.372h1.833L108.073 121h-1.922l-1.125-4.116h-.081L103.82 121h-1.918zm10.783.124c-.418 0-.79-.073-1.117-.218a1.787 1.787 0 0 1-.775-.652c-.188-.29-.282-.65-.282-1.082 0-.364.067-.669.201-.916.133-.247.315-.446.545-.597.23-.15.492-.264.784-.341a6.04 6.04 0 0 1 .929-.162c.381-.04.688-.076.921-.111.233-.036.402-.09.507-.161a.358.358 0 0 0 .157-.316v-.025c0-.27-.085-.479-.255-.627-.168-.148-.407-.221-.716-.221-.327 0-.587.072-.78.217a1.004 1.004 0 0 0-.384.537l-1.679-.137c.086-.397.253-.741.503-1.031.25-.292.573-.517.968-.673.397-.159.858-.239 1.38-.239.364 0 .712.043 1.044.128.336.085.632.217.891.396.261.179.467.41.618.691.15.278.226.612.226 1.001V121h-1.722v-.908h-.051a1.855 1.855 0 0 1-.422.542 1.959 1.959 0 0 1-.635.362 2.626 2.626 0 0 1-.856.128zm.52-1.253c.267 0 .502-.053.707-.158.204-.108.365-.253.481-.435.117-.181.175-.387.175-.617v-.695a.968.968 0 0 1-.234.102 3.844 3.844 0 0 1-.328.081c-.122.023-.245.044-.367.064l-.332.047a2.24 2.24 0 0 0-.558.149.89.89 0 0 0-.371.277.676.676 0 0 0-.132.426c0 .247.089.436.268.567.182.128.412.192.691.192zm4.574 3.584v-9h1.79v1.099h.081c.079-.176.194-.355.345-.537.153-.185.352-.338.597-.46.247-.125.554-.188.92-.188.477 0 .918.125 1.321.375.404.247.726.621.967 1.121.242.497.363 1.121.363 1.871 0 .73-.118 1.346-.354 1.849-.233.5-.551.879-.955 1.138-.4.256-.849.384-1.346.384-.352 0-.652-.059-.899-.175a1.86 1.86 0 0 1-.601-.439 2.221 2.221 0 0 1-.358-.541h-.056v3.503h-1.815zm1.777-5.728c0 .389.054.729.162 1.019.108.29.264.515.469.677.204.159.453.239.746.239.295 0 .545-.081.75-.243.204-.165.359-.392.464-.682.108-.292.162-.629.162-1.01 0-.378-.053-.71-.158-.997a1.487 1.487 0 0 0-.464-.673 1.178 1.178 0 0 0-.754-.243c-.296 0-.546.078-.75.234a1.474 1.474 0 0 0-.465.665 2.876 2.876 0 0 0-.162 1.014z"/><a><path d="M0 .239h65.644v14.523H0z"/></a><circle cx="164" cy="118" r="7" fill="#FFD362"/><path fill="#000" d="M181.759 121v-8.727h3.494c.642 0 1.177.095 1.606.285.429.191.752.455.968.793.216.335.324.721.324 1.159 0 .341-.069.641-.205.899a1.767 1.767 0 0 1-.562.631 2.304 2.304 0 0 1-.81.345v.085a2.001 2.001 0 0 1 1.645 1.01c.182.31.272.679.272 1.108 0 .463-.115.876-.345 1.24-.227.361-.564.646-1.01.857-.446.21-.995.315-1.649.315h-3.728zm1.845-1.509h1.504c.514 0 .889-.098 1.125-.294a.983.983 0 0 0 .354-.792c0-.242-.059-.455-.175-.639a1.188 1.188 0 0 0-.499-.435 1.707 1.707 0 0 0-.762-.158h-1.547v2.318zm0-3.566h1.368c.252 0 .477-.044.673-.132.199-.091.355-.219.469-.384.116-.165.174-.362.174-.592a.958.958 0 0 0-.336-.763c-.222-.193-.537-.29-.946-.29h-1.402v2.161zm7.921 5.199c-.418 0-.79-.073-1.117-.218a1.795 1.795 0 0 1-.776-.652c-.187-.29-.281-.65-.281-1.082 0-.364.067-.669.2-.916.134-.247.316-.446.546-.597.23-.15.491-.264.784-.341.295-.077.605-.13.929-.162.381-.04.688-.076.92-.111.233-.036.402-.09.508-.161a.358.358 0 0 0 .157-.316v-.025c0-.27-.085-.479-.255-.627-.168-.148-.407-.221-.716-.221-.327 0-.587.072-.78.217a1.004 1.004 0 0 0-.384.537l-1.679-.137c.086-.397.253-.741.503-1.031.25-.292.573-.517.967-.673.398-.159.858-.239 1.381-.239.364 0 .712.043 1.044.128.335.085.632.217.891.396.261.179.467.41.618.691.15.278.226.612.226 1.001V121h-1.722v-.908h-.051a1.855 1.855 0 0 1-.422.542 1.959 1.959 0 0 1-.635.362 2.63 2.63 0 0 1-.856.128zm.519-1.253c.267 0 .503-.053.708-.158.204-.108.365-.253.481-.435.117-.181.175-.387.175-.617v-.695a.968.968 0 0 1-.234.102 3.844 3.844 0 0 1-.328.081 16.62 16.62 0 0 1-.367.064l-.332.047a2.26 2.26 0 0 0-.559.149.893.893 0 0 0-.37.277.676.676 0 0 0-.132.426c0 .247.089.436.268.567.182.128.412.192.69.192zm6.39-7.598V121h-1.815v-8.727h1.815zm3.321 8.851c-.418 0-.79-.073-1.117-.218a1.793 1.793 0 0 1-.775-.652c-.188-.29-.281-.65-.281-1.082 0-.364.066-.669.2-.916.133-.247.315-.446.545-.597a2.68 2.68 0 0 1 .785-.341c.295-.077.605-.13.928-.162.381-.04.688-.076.921-.111.233-.036.402-.09.507-.161a.359.359 0 0 0 .158-.316v-.025c0-.27-.086-.479-.256-.627-.168-.148-.406-.221-.716-.221-.327 0-.587.072-.78.217a.997.997 0 0 0-.383.537l-1.679-.137c.085-.397.253-.741.503-1.031.25-.292.572-.517.967-.673.398-.159.858-.239 1.381-.239.363 0 .711.043 1.044.128.335.085.632.217.89.396.262.179.468.41.618.691.151.278.226.612.226 1.001V121h-1.722v-.908h-.051a1.839 1.839 0 0 1-.422.542 1.954 1.954 0 0 1-.634.362 2.637 2.637 0 0 1-.857.128zm.52-1.253c.267 0 .503-.053.707-.158.205-.108.365-.253.482-.435a1.12 1.12 0 0 0 .174-.617v-.695a.934.934 0 0 1-.234.102 3.752 3.752 0 0 1-.328.081c-.122.023-.244.044-.366.064l-.333.047a2.24 2.24 0 0 0-.558.149.896.896 0 0 0-.371.277.676.676 0 0 0-.132.426c0 .247.09.436.269.567.181.128.411.192.69.192zm6.39-2.655V121h-1.816v-6.545h1.731v1.154h.076a1.83 1.83 0 0 1 .729-.903c.341-.224.754-.337 1.24-.337.455 0 .851.1 1.189.299.338.198.601.483.788.852.188.366.282.804.282 1.312V121h-1.816v-3.844c.003-.4-.099-.713-.307-.937-.207-.228-.493-.341-.856-.341-.244 0-.46.052-.648.158a1.1 1.1 0 0 0-.435.46 1.601 1.601 0 0 0-.157.72zm8.607 3.912c-.671 0-1.247-.142-1.73-.426a2.875 2.875 0 0 1-1.108-1.193c-.256-.509-.384-1.094-.384-1.756 0-.671.129-1.259.388-1.764a2.875 2.875 0 0 1 1.112-1.189c.48-.287 1.051-.431 1.713-.431.571 0 1.071.104 1.5.311.429.208.769.499 1.019.874.25.375.387.815.413 1.321h-1.713c-.048-.327-.176-.589-.384-.788-.204-.202-.473-.303-.805-.303a1.22 1.22 0 0 0-.737.23c-.208.151-.37.371-.486.661-.117.289-.175.64-.175 1.052 0 .418.057.773.171 1.066.116.292.28.515.49.669.21.153.456.23.737.23a1.2 1.2 0 0 0 .558-.128c.168-.085.306-.209.414-.371a1.43 1.43 0 0 0 .217-.592h1.713c-.028.5-.165.94-.409 1.321a2.468 2.468 0 0 1-1.002.886c-.426.213-.93.32-1.512.32zm7.068 0c-.673 0-1.253-.137-1.738-.409a2.803 2.803 0 0 1-1.117-1.168c-.261-.506-.392-1.104-.392-1.794 0-.673.131-1.264.392-1.773a2.902 2.902 0 0 1 1.104-1.189c.477-.284 1.037-.426 1.679-.426.432 0 .834.07 1.206.209.375.136.701.342.98.618.281.276.5.622.656 1.04.156.415.234.9.234 1.457v.499h-5.527v-1.125h3.819c0-.262-.057-.493-.171-.695a1.215 1.215 0 0 0-.473-.473 1.353 1.353 0 0 0-.694-.175c-.276 0-.52.064-.733.192a1.346 1.346 0 0 0-.495.507 1.44 1.44 0 0 0-.183.703v1.07c0 .324.06.604.179.84.122.235.294.417.516.545.221.128.484.192.788.192.202 0 .386-.029.554-.085a1.1 1.1 0 0 0 .703-.674l1.679.111c-.085.403-.26.756-.524 1.057a2.634 2.634 0 0 1-1.014.699c-.412.164-.888.247-1.428.247zm4.189-.128v-6.545h1.76v1.142h.068c.12-.407.32-.713.601-.921a1.58 1.58 0 0 1 .972-.315 2.586 2.586 0 0 1 .571.064v1.611a3.147 3.147 0 0 0-.767-.098c-.267 0-.506.058-.716.174a1.296 1.296 0 0 0-.495.477 1.385 1.385 0 0 0-.179.708V121h-1.815z"/><a><path d="M0 .239h51.709v14.523H0z"/></a><circle cx="289" cy="118" r="7" fill="#7FBEC7"/><path fill="#000" d="M311.493 114.783c-.034-.344-.18-.611-.439-.801-.259-.191-.609-.286-1.053-.286a2.01 2.01 0 0 0-.762.128 1.068 1.068 0 0 0-.478.345.83.83 0 0 0-.162.503.725.725 0 0 0 .098.409c.074.116.175.217.303.303.128.082.276.154.443.217.168.06.347.111.537.153l.784.188c.381.085.73.199 1.048.341.319.142.594.316.827.524.233.207.414.452.541.733.131.281.198.603.201.967-.003.534-.14.997-.409 1.389-.267.39-.654.692-1.16.908-.502.213-1.109.32-1.819.32-.705 0-1.318-.108-1.841-.324a2.701 2.701 0 0 1-1.219-.959c-.29-.426-.442-.953-.456-1.581h1.786c.02.293.103.537.251.733.151.193.351.339.601.439.253.096.538.145.857.145.312 0 .583-.046.814-.137.232-.091.413-.217.541-.379a.874.874 0 0 0 .191-.558.725.725 0 0 0-.174-.494 1.311 1.311 0 0 0-.503-.341 5.124 5.124 0 0 0-.805-.256l-.951-.239c-.736-.179-1.317-.459-1.743-.839-.426-.381-.637-.894-.635-1.539-.002-.528.138-.99.422-1.384.287-.395.681-.704 1.181-.925.5-.222 1.068-.333 1.704-.333.648 0 1.213.111 1.696.333.486.221.864.53 1.134.925.27.394.409.852.417 1.372h-1.768zm7.292 3.43v-3.758h1.815V121h-1.742v-1.189h-.069a1.925 1.925 0 0 1-.737.925c-.341.233-.757.349-1.248.349-.438 0-.823-.099-1.155-.298a2.048 2.048 0 0 1-.78-.848c-.185-.367-.278-.805-.281-1.317v-4.167h1.815v3.843c.003.387.107.692.311.916.205.225.479.337.823.337.218 0 .423-.05.613-.149.191-.102.344-.253.46-.452.12-.199.178-.444.175-.737zm8.714-1.892-1.662.102a.86.86 0 0 0-.184-.383.96.96 0 0 0-.37-.277 1.262 1.262 0 0 0-.542-.107c-.281 0-.518.06-.711.179-.193.117-.29.273-.29.469 0 .156.063.288.188.396.125.108.339.195.643.26l1.185.239c.636.131 1.11.341 1.423.631.312.289.469.67.469 1.142 0 .429-.127.805-.38 1.129-.25.324-.593.577-1.031.758-.434.179-.936.269-1.504.269-.867 0-1.557-.181-2.071-.541a2.11 2.11 0 0 1-.899-1.483l1.785-.094a.919.919 0 0 0 .392.605c.208.136.473.205.797.205.318 0 .574-.061.767-.184.196-.125.296-.285.299-.481a.502.502 0 0 0-.209-.405c-.137-.108-.347-.19-.631-.247l-1.133-.226c-.64-.128-1.116-.349-1.428-.665-.31-.315-.464-.717-.464-1.206 0-.42.113-.782.34-1.086.231-.304.553-.539.968-.704.417-.164.906-.247 1.466-.247.826 0 1.477.175 1.951.524.478.35.756.826.836 1.428zm3.107.895V121h-1.815v-8.727h1.764v3.336h.077c.147-.386.386-.689.716-.907.329-.222.743-.333 1.24-.333.454 0 .851.1 1.189.299.341.196.605.478.792.848.191.366.284.805.281 1.316V121h-1.815v-3.844c.003-.403-.099-.717-.307-.942-.204-.224-.491-.336-.86-.336-.248 0-.466.052-.657.158a1.118 1.118 0 0 0-.443.46 1.562 1.562 0 0 0-.162.72zm5.673 3.784v-6.545h1.815V121h-1.815zm.912-7.389a.989.989 0 0 1-.695-.269.87.87 0 0 1-.285-.652c0-.25.095-.464.285-.643a.98.98 0 0 1 .695-.273c.27 0 .5.091.69.273.194.179.29.393.29.643a.86.86 0 0 1-.29.652.97.97 0 0 1-.69.269zm7.804 2.71-1.662.102a.868.868 0 0 0-.183-.383.972.972 0 0 0-.371-.277 1.26 1.26 0 0 0-.541-.107c-.282 0-.519.06-.712.179-.193.117-.29.273-.29.469 0 .156.063.288.188.396.125.108.339.195.643.26l1.185.239c.636.131 1.111.341 1.423.631.313.289.469.67.469 1.142 0 .429-.127.805-.379 1.129-.25.324-.594.577-1.032.758-.434.179-.936.269-1.504.269-.866 0-1.557-.181-2.071-.541a2.11 2.11 0 0 1-.899-1.483l1.785-.094a.919.919 0 0 0 .392.605c.208.136.473.205.797.205.318 0 .574-.061.767-.184.196-.125.296-.285.299-.481a.502.502 0 0 0-.209-.405c-.137-.108-.347-.19-.631-.247l-1.133-.226c-.64-.128-1.115-.349-1.428-.665-.31-.315-.464-.717-.464-1.206 0-.42.113-.782.341-1.086.23-.304.552-.539.967-.704.417-.164.906-.247 1.466-.247.826 0 1.477.175 1.951.524.478.35.756.826.836 1.428zm2.583 4.679-1.781-6.545h1.837l1.014 4.397h.059l1.057-4.397h1.803l1.074 4.372h.055l.997-4.372h1.833L353.749 121h-1.922l-1.125-4.116h-.081L349.496 121h-1.918zm10.782.124c-.417 0-.789-.073-1.116-.218a1.795 1.795 0 0 1-.776-.652c-.187-.29-.281-.65-.281-1.082 0-.364.067-.669.2-.916.134-.247.316-.446.546-.597.23-.15.491-.264.784-.341.295-.077.605-.13.929-.162.381-.04.687-.076.92-.111.233-.036.402-.09.508-.161a.358.358 0 0 0 .157-.316v-.025c0-.27-.085-.479-.256-.627-.167-.148-.406-.221-.715-.221-.327 0-.587.072-.78.217a1.004 1.004 0 0 0-.384.537l-1.679-.137c.085-.397.253-.741.503-1.031.25-.292.573-.517.967-.673.398-.159.858-.239 1.381-.239.364 0 .712.043 1.044.128.335.085.632.217.891.396.261.179.467.41.618.691.15.278.226.612.226 1.001V121h-1.722v-.908h-.051a1.855 1.855 0 0 1-.422.542 1.959 1.959 0 0 1-.635.362 2.632 2.632 0 0 1-.857.128zm.52-1.253c.267 0 .503-.053.708-.158.204-.108.365-.253.481-.435.117-.181.175-.387.175-.617v-.695a.968.968 0 0 1-.234.102 3.78 3.78 0 0 1-.329.081c-.122.023-.244.044-.366.064l-.332.047c-.213.031-.4.081-.559.149a.893.893 0 0 0-.37.277.676.676 0 0 0-.132.426c0 .247.089.436.268.567.182.128.412.192.69.192zm4.575 3.584v-9h1.79v1.099h.081c.079-.176.194-.355.345-.537a1.81 1.81 0 0 1 .596-.46c.248-.125.554-.188.921-.188.477 0 .917.125 1.321.375.403.247.726.621.967 1.121.242.497.362 1.121.362 1.871 0 .73-.117 1.346-.353 1.849-.233.5-.551.879-.955 1.138-.4.256-.849.384-1.346.384-.353 0-.652-.059-.9-.175a1.866 1.866 0 0 1-.6-.439 2.193 2.193 0 0 1-.358-.541h-.056v3.503h-1.815zm1.777-5.728c0 .389.054.729.162 1.019.108.29.264.515.469.677.204.159.453.239.745.239.296 0 .546-.081.75-.243a1.51 1.51 0 0 0 .465-.682c.108-.292.162-.629.162-1.01 0-.378-.053-.71-.158-.997a1.487 1.487 0 0 0-.464-.673 1.179 1.179 0 0 0-.755-.243c-.295 0-.545.078-.75.234a1.48 1.48 0 0 0-.464.665 2.876 2.876 0 0 0-.162 1.014z"/><a><path d="M0 .239h64.32v14.523H0z"/></a><path fill="#2656D6" d="M39.375 14h-3.142V3.818h3.281c.988 0 1.833.204 2.536.612a4.003 4.003 0 0 1 1.616 1.745c.374.755.561 1.66.561 2.714 0 1.06-.189 1.974-.566 2.74a4.038 4.038 0 0 1-1.651 1.76c-.723.407-1.6.611-2.635.611zm-1.91-1.094h1.83c.842 0 1.54-.162 2.093-.487a3.002 3.002 0 0 0 1.238-1.387c.272-.6.408-1.314.408-2.143 0-.822-.134-1.53-.403-2.123a2.97 2.97 0 0 0-1.203-1.372c-.533-.321-1.198-.482-1.993-.482h-1.97v7.994zM49.24 14.16c-.69 0-1.295-.164-1.815-.492a3.345 3.345 0 0 1-1.213-1.377c-.288-.59-.433-1.28-.433-2.068 0-.796.145-1.49.433-2.084a3.338 3.338 0 0 1 1.213-1.382c.52-.328 1.125-.492 1.815-.492.689 0 1.292.164 1.81.492.52.329.924.79 1.212 1.382.292.594.438 1.288.438 2.084 0 .788-.146 1.478-.438 2.068a3.298 3.298 0 0 1-1.213 1.377c-.517.328-1.12.492-1.81.492zm0-1.054c.523 0 .954-.134 1.292-.403.338-.268.589-.621.751-1.059.162-.437.244-.911.244-1.421s-.082-.986-.244-1.427a2.405 2.405 0 0 0-.75-1.07c-.339-.27-.77-.407-1.293-.407-.524 0-.955.136-1.293.408a2.405 2.405 0 0 0-.75 1.069c-.163.44-.244.916-.244 1.427 0 .51.08.984.243 1.421.163.438.413.79.751 1.06.338.268.769.402 1.293.402zm6.72.894-2.327-7.636h1.233l1.651 5.846h.08l1.63-5.846h1.253l1.61 5.826h.08l1.651-5.826h1.233L61.727 14h-1.153l-1.67-5.866h-.12L57.114 14H55.96zm10.818-4.594V14h-1.173V6.364h1.134v1.193h.1c.178-.388.45-.7.814-.935.365-.238.836-.358 1.412-.358.517 0 .97.106 1.358.318.387.21.689.527.904.955.216.424.324.961.324 1.61V14h-1.174V9.227c0-.6-.156-1.067-.467-1.402-.312-.338-.74-.507-1.283-.507-.374 0-.709.081-1.004.244-.292.162-.522.4-.691.71-.17.312-.254.69-.254 1.134zm8.19-5.588V14h-1.173V3.818h1.173zm5.251 10.341c-.69 0-1.294-.164-1.814-.492a3.344 3.344 0 0 1-1.214-1.377c-.288-.59-.432-1.28-.432-2.068 0-.796.144-1.49.432-2.084a3.337 3.337 0 0 1 1.213-1.382c.52-.328 1.126-.492 1.815-.492.69 0 1.293.164 1.81.492.52.329.925.79 1.213 1.382.291.594.437 1.288.437 2.084 0 .788-.145 1.478-.437 2.068a3.298 3.298 0 0 1-1.213 1.377c-.517.328-1.12.492-1.81.492zm0-1.054c.524 0 .955-.134 1.293-.403.338-.268.588-.621.75-1.059.163-.437.244-.911.244-1.421s-.081-.986-.244-1.427a2.405 2.405 0 0 0-.75-1.07c-.338-.27-.77-.407-1.293-.407-.524 0-.954.136-1.292.408a2.405 2.405 0 0 0-.751 1.069c-.163.44-.244.916-.244 1.427 0 .51.081.984.244 1.421.162.438.412.79.75 1.06.339.268.77.402 1.293.402zm7.499 1.074c-.484 0-.924-.091-1.318-.274a2.26 2.26 0 0 1-.94-.8c-.232-.351-.348-.776-.348-1.273 0-.437.087-.792.259-1.064.172-.275.403-.49.691-.646a3.63 3.63 0 0 1 .954-.348c.352-.08.705-.142 1.06-.189.464-.06.84-.104 1.128-.134.292-.033.504-.088.636-.164.136-.076.204-.209.204-.398v-.04c0-.49-.134-.871-.403-1.143-.265-.272-.667-.408-1.208-.408-.56 0-.999.123-1.317.368-.318.245-.542.507-.671.786l-1.114-.398c.199-.464.464-.825.796-1.084a2.977 2.977 0 0 1 1.093-.547c.398-.106.79-.159 1.174-.159.245 0 .527.03.845.09.321.056.631.174.93.353.301.179.551.449.75.81.2.361.299.845.299 1.452V14h-1.174v-1.034h-.06a2.07 2.07 0 0 1-.397.532c-.186.189-.433.35-.74.482-.31.133-.685.199-1.13.199zm.178-1.054c.465 0 .856-.091 1.174-.273a1.862 1.862 0 0 0 .974-1.616v-1.074c-.05.06-.159.114-.328.164a5.547 5.547 0 0 1-.577.124 26.415 26.415 0 0 1-1.123.15c-.305.04-.59.104-.855.193a1.474 1.474 0 0 0-.637.393c-.159.172-.238.408-.238.706 0 .408.15.716.452.925.305.205.691.308 1.159.308zm8.347 1.034c-.637 0-1.199-.16-1.686-.482-.487-.325-.868-.782-1.143-1.372-.275-.594-.413-1.295-.413-2.103 0-.802.138-1.498.413-2.088.275-.59.658-1.046 1.148-1.368.49-.321 1.057-.482 1.7-.482.498 0 .89.083 1.179.249.291.162.513.348.666.557.156.205.277.374.363.507h.1V3.818h1.173V14h-1.134v-1.173h-.14a7.133 7.133 0 0 1-.367.527c-.16.209-.386.396-.681.562-.295.162-.688.243-1.178.243zm.159-1.054c.47 0 .868-.123 1.193-.368.325-.248.572-.591.74-1.029.17-.44.254-.95.254-1.526 0-.57-.083-1.07-.248-1.497-.166-.43-.411-.765-.736-1.004-.325-.242-.726-.363-1.203-.363-.498 0-.912.128-1.243.383a2.292 2.292 0 0 0-.741 1.03 4.09 4.09 0 0 0-.244 1.45c0 .544.083 1.038.249 1.482.169.441.418.793.746 1.054.331.259.742.388 1.233.388zm12.891.895h-3.142V3.818h3.281c.988 0 1.833.204 2.536.612a4.003 4.003 0 0 1 1.615 1.745c.375.755.562 1.66.562 2.714 0 1.06-.189 1.974-.567 2.74a4.035 4.035 0 0 1-1.65 1.76c-.723.407-1.601.611-2.635.611zm-1.909-1.094h1.829c.842 0 1.54-.162 2.093-.487a2.996 2.996 0 0 0 1.238-1.387c.272-.6.408-1.314.408-2.143 0-.822-.134-1.53-.403-2.123a2.965 2.965 0 0 0-1.203-1.372c-.533-.321-1.198-.482-1.993-.482h-1.969v7.994zm10.917 1.273c-.483 0-.923-.091-1.317-.274a2.264 2.264 0 0 1-.94-.8c-.232-.351-.348-.776-.348-1.273 0-.437.087-.792.259-1.064.172-.275.403-.49.691-.646.288-.156.606-.272.954-.348a11.7 11.7 0 0 1 1.059-.189c.464-.06.841-.104 1.129-.134.292-.033.504-.088.636-.164.136-.076.204-.209.204-.398v-.04c0-.49-.134-.871-.403-1.143-.265-.272-.667-.408-1.208-.408-.56 0-.999.123-1.317.368-.318.245-.542.507-.671.786l-1.114-.398c.199-.464.464-.825.796-1.084a2.975 2.975 0 0 1 1.093-.547 4.547 4.547 0 0 1 1.174-.159c.245 0 .527.03.845.09.321.056.631.174.929.353.302.179.552.449.751.81.199.361.298.845.298 1.452V14h-1.173v-1.034h-.059c-.08.166-.213.343-.398.532-.186.189-.433.35-.741.482-.308.133-.684.199-1.129.199zm.179-1.054c.464 0 .856-.091 1.174-.273a1.87 1.87 0 0 0 .726-.706c.165-.289.248-.592.248-.91v-1.074c-.05.06-.159.114-.328.164a5.554 5.554 0 0 1-.577.124 26.387 26.387 0 0 1-1.123.15c-.305.04-.59.104-.855.193a1.479 1.479 0 0 0-.637.393c-.159.172-.238.408-.238.706 0 .408.15.716.452.925.305.205.691.308 1.158.308zm8.784-6.761v.994h-3.957v-.994h3.957zm-2.804-1.83h1.173v7.279c0 .33.048.58.145.745a.746.746 0 0 0 .377.328c.156.053.32.08.493.08.129 0 .235-.007.318-.02l.199-.04.238 1.054c-.079.03-.19.06-.333.09-.142.033-.323.05-.542.05a2.36 2.36 0 0 1-.974-.214 1.939 1.939 0 0 1-.786-.652c-.205-.291-.308-.66-.308-1.103V4.534zm6.816 9.645a3.1 3.1 0 0 1-1.317-.274 2.258 2.258 0 0 1-.94-.8c-.232-.351-.348-.776-.348-1.273 0-.437.086-.792.259-1.064a1.82 1.82 0 0 1 .691-.646c.288-.156.606-.272.954-.348.351-.08.704-.142 1.059-.189.464-.06.84-.104 1.129-.134.291-.033.503-.088.636-.164.136-.076.204-.209.204-.398v-.04c0-.49-.134-.871-.403-1.143-.265-.272-.668-.408-1.208-.408-.56 0-.999.123-1.317.368-.319.245-.542.507-.672.786l-1.113-.398c.199-.464.464-.825.795-1.084.335-.262.7-.444 1.094-.547a4.546 4.546 0 0 1 1.173-.159c.246 0 .527.03.845.09a2.7 2.7 0 0 1 .93.353c.302.179.552.449.751.81.199.361.298.845.298 1.452V14h-1.173v-1.034h-.06a2.047 2.047 0 0 1-.398.532c-.185.189-.432.35-.74.482-.309.133-.685.199-1.129.199zm.179-1.054c.464 0 .855-.091 1.173-.273a1.863 1.863 0 0 0 .975-1.616v-1.074c-.05.06-.159.114-.328.164a5.554 5.554 0 0 1-.577.124 26.387 26.387 0 0 1-1.124.15c-.305.04-.59.104-.855.193a1.47 1.47 0 0 0-.636.393c-.159.172-.239.408-.239.706 0 .408.151.716.453.925.305.205.691.308 1.158.308zm9.062-9.784-3.281 12.19h-1.074l3.281-12.19h1.074zm2.783.477V14h-1.233V3.818h1.233zM145.613 14V6.364h1.133v1.193h.1a1.92 1.92 0 0 1 .77-.95c.355-.228.781-.343 1.278-.343.504 0 .923.115 1.258.343.338.226.602.542.79.95h.08c.196-.395.489-.708.88-.94.391-.235.86-.353 1.407-.353.683 0 1.241.214 1.675.642.435.424.652 1.085.652 1.983V14h-1.174V8.89c0-.564-.154-.967-.462-1.209a1.71 1.71 0 0 0-1.089-.363c-.537 0-.953.163-1.248.487-.295.322-.442.73-.442 1.223V14h-1.193V8.77c0-.434-.141-.784-.423-1.05-.282-.268-.645-.402-1.089-.402-.305 0-.59.081-.855.244a1.834 1.834 0 0 0-.636.676 1.997 1.997 0 0 0-.239.99V14h-1.173zm14.415.179a3.1 3.1 0 0 1-1.317-.274 2.258 2.258 0 0 1-.94-.8c-.232-.351-.348-.776-.348-1.273 0-.437.086-.792.258-1.064a1.83 1.83 0 0 1 .692-.646c.288-.156.606-.272.954-.348.351-.08.704-.142 1.059-.189.464-.06.84-.104 1.129-.134.291-.033.503-.088.636-.164.136-.076.204-.209.204-.398v-.04c0-.49-.134-.871-.403-1.143-.265-.272-.668-.408-1.208-.408-.56 0-.999.123-1.318.368-.318.245-.541.507-.671.786l-1.113-.398c.199-.464.464-.825.795-1.084a2.98 2.98 0 0 1 1.094-.547 4.546 4.546 0 0 1 1.173-.159c.245 0 .527.03.845.09a2.7 2.7 0 0 1 .93.353c.302.179.552.449.751.81.199.361.298.845.298 1.452V14h-1.173v-1.034h-.06a2.047 2.047 0 0 1-.398.532c-.185.189-.432.35-.74.482-.309.133-.685.199-1.129.199zm.179-1.054c.464 0 .855-.091 1.173-.273a1.863 1.863 0 0 0 .975-1.616v-1.074c-.05.06-.159.114-.328.164a5.554 5.554 0 0 1-.577.124 27.129 27.129 0 0 1-1.124.15c-.305.04-.59.104-.855.193a1.47 1.47 0 0 0-.636.393c-.159.172-.239.408-.239.706 0 .408.151.716.453.925.305.205.691.308 1.158.308zm8.545 3.898c-.567 0-1.054-.073-1.462-.219a3.11 3.11 0 0 1-1.019-.567 3.108 3.108 0 0 1-.641-.745l.934-.657c.107.14.241.298.403.477.163.183.385.34.666.473.285.136.658.204 1.119.204.616 0 1.125-.15 1.526-.448.401-.298.602-.765.602-1.402v-1.55h-.1a6.07 6.07 0 0 1-.368.516c-.155.202-.381.383-.676.542-.291.156-.686.234-1.183.234-.616 0-1.17-.146-1.66-.438-.488-.291-.874-.716-1.159-1.272-.282-.557-.422-1.233-.422-2.029 0-.782.137-1.463.412-2.043.275-.584.658-1.034 1.149-1.353.49-.321 1.057-.482 1.7-.482.497 0 .892.083 1.183.249.295.162.521.348.676.557.159.205.282.374.368.507h.12V6.364h1.133v7.855c0 .656-.149 1.19-.447 1.6a2.547 2.547 0 0 1-1.194.91 4.497 4.497 0 0 1-1.66.294zm-.04-4.196c.471 0 .869-.108 1.193-.323.325-.216.572-.526.741-.93.169-.405.254-.888.254-1.452 0-.55-.083-1.036-.249-1.457a2.186 2.186 0 0 0-.736-.989c-.325-.239-.726-.358-1.203-.358-.497 0-.911.126-1.243.378-.328.252-.575.59-.74 1.014a3.908 3.908 0 0 0-.244 1.412c0 .53.083 1 .248 1.407.17.405.418.723.746.955.332.228.743.343 1.233.343zm8.691 1.332c-.736 0-1.371-.162-1.905-.487a3.276 3.276 0 0 1-1.228-1.372c-.285-.59-.427-1.276-.427-2.059 0-.782.142-1.471.427-2.068.289-.6.69-1.067 1.204-1.402.517-.338 1.12-.507 1.809-.507.398 0 .791.066 1.178.2.388.132.741.347 1.059.645.319.295.572.686.761 1.174.189.487.283 1.087.283 1.8v.496h-5.886V9.566h4.693c0-.43-.086-.815-.258-1.153a1.947 1.947 0 0 0-.726-.8c-.312-.196-.68-.294-1.104-.294-.467 0-.871.116-1.213.348a2.286 2.286 0 0 0-.78.895 2.62 2.62 0 0 0-.274 1.183v.677c0 .576.1 1.065.298 1.466.203.398.483.701.841.91.358.205.774.308 1.248.308.308 0 .586-.043.835-.13a1.77 1.77 0 0 0 .651-.397c.182-.179.323-.4.423-.666l1.133.318c-.119.385-.32.723-.601 1.014-.282.289-.63.514-1.044.677-.415.159-.88.238-1.397.238z"/><path fill="#2656D6" d="M35 16.784h146.28v.955H35v-.955zM217.651 3.818l3.022 8.571h.12l3.022-8.57h1.293L221.369 14h-1.272l-3.739-10.182h1.293zM226.535 14V6.364h1.173V14h-1.173zm.596-8.91a.833.833 0 0 1-.591-.233.749.749 0 0 1-.244-.562c0-.218.081-.406.244-.561a.833.833 0 0 1 .591-.234c.229 0 .425.078.587.234a.743.743 0 0 1 .249.561.743.743 0 0 1-.249.562.817.817 0 0 1-.587.234zm5.928 9.07c-.736 0-1.371-.163-1.904-.488a3.263 3.263 0 0 1-1.228-1.372c-.285-.59-.428-1.276-.428-2.059 0-.782.143-1.471.428-2.068.288-.6.689-1.067 1.203-1.402.517-.338 1.12-.507 1.809-.507.398 0 .791.066 1.179.2.388.132.74.347 1.059.645.318.295.571.686.76 1.174.189.487.284 1.087.284 1.8v.496h-5.887V9.566h4.694c0-.43-.087-.815-.259-1.153a1.947 1.947 0 0 0-.726-.8c-.311-.196-.679-.294-1.104-.294-.467 0-.871.116-1.213.348a2.286 2.286 0 0 0-.78.895 2.633 2.633 0 0 0-.274 1.183v.677c0 .576.1 1.065.299 1.466.202.398.482.701.84.91.358.205.774.308 1.248.308.308 0 .586-.043.835-.13a1.77 1.77 0 0 0 .651-.397c.183-.179.323-.4.423-.666l1.133.318a2.505 2.505 0 0 1-.601 1.014c-.282.289-.63.514-1.044.677-.415.159-.88.238-1.397.238zm6.677-.16-2.327-7.636h1.233l1.65 5.846h.08l1.631-5.846h1.253l1.61 5.826h.08l1.65-5.826h1.233L245.503 14h-1.154l-1.67-5.866h-.12L240.889 14h-1.153zm18.792 2.864v-4.037h-.099a7.5 7.5 0 0 1-.368.527 2.182 2.182 0 0 1-.681.562c-.295.162-.688.243-1.178.243-.637 0-1.199-.16-1.686-.482-.487-.325-.868-.782-1.143-1.372-.275-.594-.413-1.295-.413-2.103 0-.802.138-1.498.413-2.088.275-.59.658-1.046 1.148-1.368.491-.321 1.057-.482 1.7-.482.498 0 .89.083 1.179.249.291.162.513.348.666.557.156.205.277.374.363.507h.139V6.364h1.134v10.5h-1.174zm-2.167-3.759c.47 0 .868-.123 1.193-.368.325-.248.572-.591.741-1.029.169-.44.253-.95.253-1.526 0-.57-.083-1.07-.248-1.497-.166-.43-.411-.765-.736-1.004-.325-.242-.726-.363-1.203-.363-.498 0-.912.128-1.243.383a2.295 2.295 0 0 0-.741 1.03 4.1 4.1 0 0 0-.244 1.45c0 .544.083 1.038.249 1.482.169.441.418.793.746 1.054.331.259.742.388 1.233.388zm10.301-2.227V6.364h1.173V14h-1.173v-1.293h-.08a2.503 2.503 0 0 1-.835.99c-.378.268-.855.402-1.432.402-.477 0-.901-.104-1.273-.313-.371-.212-.662-.53-.875-.954-.212-.428-.318-.966-.318-1.616V6.364h1.174v4.772c0 .557.155 1.001.467 1.333.315.331.716.497 1.203.497a2 2 0 0 0 .89-.224c.305-.149.56-.378.766-.686.208-.308.313-.7.313-1.178zm6.524 3.281c-.736 0-1.371-.162-1.904-.487a3.263 3.263 0 0 1-1.228-1.372c-.285-.59-.428-1.276-.428-2.059 0-.782.143-1.471.428-2.068.288-.6.689-1.067 1.203-1.402.517-.338 1.12-.507 1.809-.507.398 0 .791.066 1.179.2.387.132.74.347 1.059.645.318.295.571.686.76 1.174.189.487.284 1.087.284 1.8v.496h-5.887V9.566h4.693c0-.43-.086-.815-.258-1.153a1.947 1.947 0 0 0-.726-.8c-.311-.196-.679-.294-1.104-.294-.467 0-.871.116-1.213.348a2.286 2.286 0 0 0-.78.895 2.633 2.633 0 0 0-.274 1.183v.677c0 .576.1 1.065.299 1.466.202.398.482.701.84.91.358.205.774.308 1.248.308.308 0 .586-.043.835-.13a1.77 1.77 0 0 0 .651-.397c.183-.179.323-.4.423-.666l1.133.318c-.119.385-.32.723-.601 1.014-.282.289-.63.514-1.044.677-.415.159-.88.238-1.397.238zm4.946-.159V6.364h1.134v1.153h.08c.139-.378.391-.684.755-.92a2.226 2.226 0 0 1 1.233-.353c.086 0 .194.002.323.005.13.004.227.009.294.015v1.193a3.49 3.49 0 0 0-.274-.044 2.681 2.681 0 0 0-.442-.035 2.08 2.08 0 0 0-.995.234 1.765 1.765 0 0 0-.686.636 1.721 1.721 0 0 0-.248.92V14h-1.174zm6.198 2.864a2.56 2.56 0 0 1-.532-.05 1.41 1.41 0 0 1-.324-.09l.299-1.034c.285.073.537.1.755.08a.906.906 0 0 0 .582-.293c.172-.173.33-.453.472-.84l.219-.597-2.824-7.676h1.273l2.108 6.085h.08l2.107-6.085h1.273l-3.241 8.75c-.146.394-.327.72-.542.979a2.035 2.035 0 0 1-.751.582c-.282.126-.6.189-.954.189z"/><path fill="#2656D6" d="M216 16.784h74.295v.955H216v-.955zM323.233 14V3.818h6.145v1.094h-4.912v3.44h4.594v1.094h-4.594v3.46h4.991V14h-6.224zm11.092.16c-.637 0-1.199-.162-1.686-.483-.487-.325-.868-.782-1.143-1.372-.275-.594-.413-1.295-.413-2.103 0-.802.138-1.498.413-2.088.275-.59.658-1.046 1.148-1.368.491-.321 1.057-.482 1.7-.482.498 0 .89.083 1.179.249.291.162.513.348.666.557.156.205.277.374.363.507h.099V3.818h1.174V14h-1.134v-1.173h-.139a7.5 7.5 0 0 1-.368.527 2.182 2.182 0 0 1-.681.562c-.295.162-.688.243-1.178.243zm.159-1.055c.47 0 .868-.123 1.193-.368.325-.248.572-.591.741-1.029.169-.44.253-.95.253-1.526 0-.57-.083-1.07-.248-1.497-.166-.43-.411-.765-.736-1.004-.325-.242-.726-.363-1.203-.363-.497 0-.912.128-1.243.383a2.295 2.295 0 0 0-.741 1.03 4.1 4.1 0 0 0-.244 1.45c0 .544.083 1.038.249 1.482.169.441.418.793.746 1.054.331.259.742.388 1.233.388zm5.652.895V6.364h1.174V14h-1.174zm.597-8.91a.835.835 0 0 1-.592-.233.752.752 0 0 1-.243-.562.75.75 0 0 1 .243-.561.835.835 0 0 1 .592-.234c.229 0 .424.078.587.234a.746.746 0 0 1 .248.561.746.746 0 0 1-.248.562.818.818 0 0 1-.587.234zm6.047 1.274v.994h-3.958v-.994h3.958zm-2.804-1.83h1.173v7.279c0 .33.048.58.144.745.1.163.226.272.378.328.156.053.32.08.492.08.129 0 .235-.007.318-.02l.199-.04.239 1.054c-.08.03-.191.06-.333.09-.143.033-.323.05-.542.05-.332 0-.656-.072-.975-.214a1.942 1.942 0 0 1-.785-.652c-.206-.291-.308-.66-.308-1.103V4.534zM352.641 14V3.818h3.44c.799 0 1.452.144 1.959.433.511.285.889.67 1.134 1.158.245.487.368 1.03.368 1.63 0 .6-.123 1.146-.368 1.636a2.737 2.737 0 0 1-1.124 1.174c-.507.288-1.156.432-1.949.432h-2.466V9.187h2.427c.546 0 .986-.094 1.317-.283.332-.189.572-.444.721-.766.152-.324.229-.69.229-1.098a2.53 2.53 0 0 0-.229-1.094 1.63 1.63 0 0 0-.726-.756c-.335-.185-.779-.278-1.332-.278h-2.168V14h-1.233zm8.728 0V6.364h1.133v1.153h.08c.139-.378.391-.684.756-.92a2.22 2.22 0 0 1 1.232-.353c.087 0 .194.002.324.005.129.004.227.009.293.015v1.193a3.521 3.521 0 0 0-.273-.044 2.703 2.703 0 0 0-.443-.035c-.371 0-.703.078-.994.234a1.713 1.713 0 0 0-.935 1.556V14h-1.173zm8.079.16c-.69 0-1.295-.165-1.815-.493a3.346 3.346 0 0 1-1.213-1.377c-.288-.59-.433-1.28-.433-2.068 0-.796.145-1.49.433-2.084a3.34 3.34 0 0 1 1.213-1.382c.52-.328 1.125-.492 1.815-.492.689 0 1.292.164 1.809.492.521.329.925.79 1.213 1.382.292.594.438 1.288.438 2.084 0 .788-.146 1.478-.438 2.068a3.291 3.291 0 0 1-1.213 1.377c-.517.328-1.12.492-1.809.492zm0-1.055c.523 0 .954-.134 1.292-.403.338-.268.589-.621.751-1.059.162-.437.244-.911.244-1.421s-.082-.986-.244-1.427a2.403 2.403 0 0 0-.751-1.07c-.338-.27-.769-.407-1.292-.407-.524 0-.955.136-1.293.408a2.41 2.41 0 0 0-.751 1.069 4.1 4.1 0 0 0-.243 1.427c0 .51.081.984.243 1.421.163.438.413.79.751 1.06.338.268.769.402 1.293.402zm5.251 3.759v-10.5h1.133v1.213h.14a9.99 9.99 0 0 1 .358-.507c.155-.21.377-.395.666-.557.291-.166.686-.249 1.183-.249.643 0 1.21.16 1.7.482.491.322.874.778 1.149 1.368.275.59.412 1.286.412 2.088 0 .808-.137 1.51-.412 2.103-.275.59-.657 1.047-1.144 1.372-.487.321-1.049.482-1.685.482-.491 0-.883-.081-1.178-.244a2.198 2.198 0 0 1-.682-.561 7.432 7.432 0 0 1-.367-.527h-.1v4.037h-1.173zm1.153-6.682c0 .576.085 1.085.254 1.526.169.438.416.78.741 1.03.324.245.722.367 1.193.367.49 0 .9-.13 1.228-.388.331-.261.58-.613.745-1.054.17-.444.254-.938.254-1.481 0-.537-.083-1.021-.249-1.452a2.242 2.242 0 0 0-.74-1.029c-.328-.255-.741-.383-1.238-.383-.477 0-.879.121-1.203.363-.325.239-.57.574-.736 1.004-.166.428-.249.927-.249 1.497zm10.58 3.977c-.736 0-1.371-.162-1.904-.487A3.263 3.263 0 0 1 383.3 12.3c-.285-.59-.428-1.276-.428-2.059 0-.782.143-1.471.428-2.068.288-.6.689-1.067 1.203-1.402.517-.338 1.12-.507 1.809-.507.398 0 .791.066 1.179.2.388.132.741.347 1.059.645.318.295.571.686.76 1.174.189.487.284 1.087.284 1.8v.496h-5.887V9.566h4.694c0-.43-.087-.815-.259-1.153a1.947 1.947 0 0 0-.726-.8c-.311-.196-.679-.294-1.104-.294-.467 0-.871.116-1.213.348a2.286 2.286 0 0 0-.78.895 2.633 2.633 0 0 0-.274 1.183v.677c0 .576.1 1.065.299 1.466.202.398.482.701.84.91.358.205.774.308 1.248.308.308 0 .586-.043.835-.13a1.77 1.77 0 0 0 .651-.397c.183-.179.323-.4.423-.666l1.133.318a2.505 2.505 0 0 1-.601 1.014c-.282.289-.63.514-1.044.677-.414.159-.88.238-1.397.238zm4.947-.159V6.364h1.133v1.153h.08c.139-.378.391-.684.755-.92a2.226 2.226 0 0 1 1.233-.353c.086 0 .194.002.323.005.13.004.227.009.294.015v1.193a3.49 3.49 0 0 0-.274-.044 2.681 2.681 0 0 0-.442-.035c-.371 0-.703.078-.994.234a1.76 1.76 0 0 0-.687.636 1.721 1.721 0 0 0-.248.92V14h-1.173zm9.008-7.636v.994h-3.957v-.994h3.957zm-2.804-1.83h1.173v7.279c0 .33.048.58.145.745a.746.746 0 0 0 .377.328c.156.053.32.08.493.08.129 0 .235-.007.318-.02l.199-.04.238 1.054c-.079.03-.19.06-.333.09-.142.033-.323.05-.542.05a2.36 2.36 0 0 1-.974-.214 1.939 1.939 0 0 1-.786-.652c-.205-.291-.308-.66-.308-1.103V4.534zM402.152 14V6.364h1.173V14h-1.173zm.597-8.91a.835.835 0 0 1-.592-.233.753.753 0 0 1-.244-.562.75.75 0 0 1 .244-.561.835.835 0 0 1 .592-.234c.228 0 .424.078.586.234a.743.743 0 0 1 .249.561.743.743 0 0 1-.249.562.816.816 0 0 1-.586.234zm5.927 9.07c-.736 0-1.371-.163-1.904-.488a3.27 3.27 0 0 1-1.228-1.372c-.285-.59-.428-1.276-.428-2.059 0-.782.143-1.471.428-2.068.288-.6.689-1.067 1.203-1.402.517-.338 1.12-.507 1.81-.507.397 0 .79.066 1.178.2.388.132.741.347 1.059.645.318.295.572.686.761 1.174.188.487.283 1.087.283 1.8v.496h-5.886V9.566h4.693c0-.43-.086-.815-.259-1.153a1.947 1.947 0 0 0-.726-.8c-.311-.196-.679-.294-1.103-.294-.468 0-.872.116-1.213.348a2.289 2.289 0 0 0-.781.895 2.632 2.632 0 0 0-.273 1.183v.677c0 .576.099 1.065.298 1.466.202.398.482.701.84.91.358.205.774.308 1.248.308.308 0 .587-.043.835-.13a1.77 1.77 0 0 0 .651-.397c.183-.179.324-.4.423-.666l1.134.318a2.51 2.51 0 0 1-.602 1.014c-.282.289-.63.514-1.044.677-.414.159-.88.238-1.397.238zm10.356-6.086-1.054.298a1.932 1.932 0 0 0-.294-.512 1.413 1.413 0 0 0-.517-.418c-.218-.109-.498-.164-.84-.164-.467 0-.857.108-1.168.324-.308.212-.462.482-.462.81 0 .292.106.522.318.691.212.169.543.31.994.423l1.134.278c.682.166 1.191.42 1.526.76.335.339.502.774.502 1.308 0 .438-.126.829-.378 1.174-.248.344-.596.616-1.044.815-.447.199-.968.298-1.561.298-.779 0-1.423-.169-1.934-.507-.51-.338-.833-.832-.969-1.481l1.113-.279c.106.411.307.72.602.925.298.205.688.308 1.168.308.547 0 .981-.116 1.303-.348.325-.235.487-.517.487-.845a.89.89 0 0 0-.278-.666c-.186-.183-.471-.319-.856-.408l-1.272-.298c-.7-.166-1.213-.423-1.542-.77-.324-.352-.487-.791-.487-1.318 0-.431.121-.812.363-1.144.245-.331.579-.591.999-.78a3.512 3.512 0 0 1 1.442-.284c.756 0 1.349.166 1.78.497.434.332.742.77.925 1.313z"/><path fill="#2656D6" d="M322 16.784h97.867v.955H322v-.955zM451.233 14V3.818h3.44c.796 0 1.449.136 1.959.408.511.268.888.638 1.134 1.109.245.47.368 1.005.368 1.605 0 .6-.123 1.132-.368 1.596-.246.464-.622.829-1.129 1.094-.507.262-1.155.393-1.944.393h-2.784V8.909h2.744c.544 0 .981-.08 1.313-.239.335-.159.577-.384.726-.676.152-.295.228-.646.228-1.054a2.37 2.37 0 0 0-.228-1.069 1.561 1.561 0 0 0-.731-.706c-.335-.169-.777-.253-1.327-.253h-2.168V14h-1.233zm4.793-4.574L458.531 14h-1.432l-2.465-4.574h1.392zm8.815 1.452V6.364h1.174V14h-1.174v-1.293h-.079a2.503 2.503 0 0 1-.835.99c-.378.268-.855.402-1.432.402a2.55 2.55 0 0 1-1.273-.313 2.192 2.192 0 0 1-.875-.954c-.212-.428-.318-.966-.318-1.616V6.364h1.173v4.772c0 .557.156 1.001.468 1.333.314.331.715.497 1.203.497.291 0 .588-.075.89-.224.305-.149.56-.378.765-.686.209-.308.313-.7.313-1.178zm4.496-1.472V14h-1.173V6.364h1.133v1.193h.1c.179-.388.45-.7.815-.935.365-.238.835-.358 1.412-.358.517 0 .969.106 1.357.318.388.21.69.527.905.955.215.424.323.961.323 1.61V14h-1.173V9.227c0-.6-.156-1.067-.467-1.402-.312-.338-.74-.507-1.283-.507-.375 0-.709.081-1.004.244a1.74 1.74 0 0 0-.691.71c-.169.312-.254.69-.254 1.134zM480.291 14V6.364h1.173V14h-1.173zm.596-8.91a.833.833 0 0 1-.591-.233.749.749 0 0 1-.244-.562c0-.218.081-.406.244-.561a.833.833 0 0 1 .591-.234c.229 0 .424.078.587.234a.742.742 0 0 1 .248.561.742.742 0 0 1-.248.562.818.818 0 0 1-.587.234zm3.899 4.316V14h-1.173V6.364h1.133v1.193h.1c.179-.388.451-.7.815-.935.365-.238.835-.358 1.412-.358.517 0 .97.106 1.357.318.388.21.69.527.905.955.216.424.323.961.323 1.61V14h-1.173V9.227c0-.6-.156-1.067-.467-1.402-.312-.338-.739-.507-1.283-.507-.374 0-.709.081-1.004.244a1.74 1.74 0 0 0-.691.71c-.169.312-.254.69-.254 1.134zm16.681-3.042a1.56 1.56 0 0 0-.726-1.174c-.424-.278-.944-.417-1.561-.417-.451 0-.845.073-1.183.218a1.89 1.89 0 0 0-.786.602 1.446 1.446 0 0 0-.278.87c0 .272.065.506.194.701.133.192.302.353.507.482.206.126.421.23.646.314.226.08.433.144.622.193l1.034.279c.265.07.56.166.885.288.328.123.641.29.939.502.302.21.551.478.746.806.196.328.294.73.294 1.208 0 .55-.145 1.047-.433 1.491-.285.444-.703.797-1.253 1.06-.547.261-1.211.392-1.993.392-.73 0-1.361-.118-1.895-.353-.53-.235-.948-.564-1.252-.984a2.808 2.808 0 0 1-.513-1.467h1.273c.033.384.163.703.388.954.229.25.517.435.865.557.351.12.729.18 1.134.18.47 0 .893-.077 1.267-.23a2.16 2.16 0 0 0 .89-.646 1.53 1.53 0 0 0 .328-.974c0-.338-.094-.613-.283-.825a2.084 2.084 0 0 0-.746-.517 7.816 7.816 0 0 0-.999-.348l-1.253-.358c-.795-.23-1.425-.556-1.889-.98-.464-.424-.696-.98-.696-1.665 0-.57.154-1.068.462-1.492a3.072 3.072 0 0 1 1.253-.994 4.23 4.23 0 0 1 1.765-.358c.656 0 1.24.118 1.75.353.51.232.915.55 1.213.955.302.404.461.863.477 1.377h-1.193zm7.059 4.454h1.352l1.133 1.492.299.397 1.69 2.247h-1.352l-1.114-1.49-.278-.379-1.73-2.267zm4.892-1.909c0 1.074-.194 2.002-.582 2.784-.388.782-.92 1.386-1.596 1.81-.676.424-1.448.636-2.317.636-.868 0-1.64-.212-2.316-.636-.677-.424-1.209-1.028-1.596-1.81-.388-.782-.582-1.71-.582-2.784 0-1.074.194-2.002.582-2.784.387-.782.919-1.385 1.596-1.81.676-.424 1.448-.636 2.316-.636.869 0 1.641.212 2.317.636.676.425 1.208 1.028 1.596 1.81.388.782.582 1.71.582 2.784zm-1.194 0c0-.882-.147-1.626-.442-2.232-.292-.607-.688-1.066-1.188-1.377a3.081 3.081 0 0 0-1.671-.468c-.616 0-1.175.156-1.675.468-.497.311-.893.77-1.188 1.377-.292.606-.438 1.35-.438 2.232 0 .882.146 1.626.438 2.232.295.607.691 1.066 1.188 1.377.5.312 1.059.468 1.675.468.617 0 1.174-.156 1.671-.468.5-.311.896-.77 1.188-1.377.295-.606.442-1.35.442-2.232zM515.491 14V3.818h1.233v9.088h4.733V14h-5.966zm11.812 0V3.818h1.233v9.088h4.733V14h-5.966zm9.963.179a3.1 3.1 0 0 1-1.317-.274 2.258 2.258 0 0 1-.94-.8c-.232-.351-.348-.776-.348-1.273 0-.437.086-.792.259-1.064a1.82 1.82 0 0 1 .691-.646c.288-.156.606-.272.954-.348a11.7 11.7 0 0 1 1.059-.189c.464-.06.84-.104 1.129-.134.292-.033.504-.088.636-.164.136-.076.204-.209.204-.398v-.04c0-.49-.134-.871-.403-1.143-.265-.272-.668-.408-1.208-.408-.56 0-.999.123-1.317.368-.318.245-.542.507-.671.786l-1.114-.398c.199-.464.464-.825.795-1.084.335-.262.7-.444 1.094-.547a4.546 4.546 0 0 1 1.173-.159c.246 0 .527.03.846.09.321.056.631.174.929.353.302.179.552.449.751.81.199.361.298.845.298 1.452V14h-1.173v-1.034h-.06a2.064 2.064 0 0 1-.397.532c-.186.189-.433.35-.741.482-.308.133-.685.199-1.129.199zm.179-1.054c.464 0 .855-.091 1.174-.273a1.86 1.86 0 0 0 .974-1.616v-1.074c-.05.06-.159.114-.328.164a5.554 5.554 0 0 1-.577.124 26.387 26.387 0 0 1-1.123.15c-.305.04-.59.104-.855.193a1.479 1.479 0 0 0-.637.393c-.159.172-.238.408-.238.706 0 .408.15.716.452.925.305.205.691.308 1.158.308zm5.622.875V3.818h1.173v3.759h.1a9.99 9.99 0 0 1 .358-.507c.155-.21.377-.395.666-.557.291-.166.686-.249 1.183-.249.643 0 1.21.16 1.7.482.491.322.874.778 1.149 1.368.275.59.412 1.286.412 2.088 0 .808-.137 1.51-.412 2.103-.275.59-.656 1.047-1.144 1.372-.487.321-1.049.482-1.685.482-.491 0-.883-.081-1.178-.244a2.182 2.182 0 0 1-.681-.561 7.174 7.174 0 0 1-.368-.527h-.14V14h-1.133zm1.153-3.818c0 .576.085 1.085.254 1.526.169.438.416.78.741 1.03.324.245.722.367 1.193.367.49 0 .9-.13 1.228-.388.331-.261.58-.613.746-1.054.169-.444.253-.938.253-1.481 0-.537-.083-1.021-.248-1.452a2.251 2.251 0 0 0-.741-1.029c-.328-.255-.741-.383-1.238-.383-.477 0-.878.121-1.203.363-.325.239-.57.574-.736 1.004-.166.428-.249.927-.249 1.497zM450 16.784h100.524v.955H450v-.955z"/></svg>