<svg xmlns="http://www.w3.org/2000/svg" width="34" height="34" fill="none"><g clip-path="url(#a)"><path fill="#0059FF" d="M15.302 25.172a.995.995 0 1 1-.002 1.99.995.995 0 0 1 .002-1.99zm15.618-6.158a.996.996 0 1 1 .001-1.992.996.996 0 0 1-.001 1.992zm0-4.074a3.083 3.083 0 0 0-3.08 3.08c0 .33.055.658.163.979L17.83 24.415a3.067 3.067 0 0 0-2.528-1.328 3.086 3.086 0 0 0-2.762 1.723L3.4 19.99c-.965-.507-1.688-2.096-1.611-3.544.04-.755.3-1.342.698-1.569.252-.141.555-.13.878.039l.06.032c2.422 1.275 10.347 5.45 10.682 5.605.514.24.8.335 1.678-.081l16.383-8.52c.24-.09.521-.322.521-.671 0-.485-.502-.676-.503-.676a575.958 575.958 0 0 0-3.761-1.771c-2.986-1.398-6.37-2.982-7.857-3.761-1.284-.672-2.316-.105-2.5.008l-.357.177C11.02 8.566 2.068 13 1.558 13.311c-.911.555-1.476 1.661-1.55 3.034-.113 2.178.996 4.449 2.584 5.28l9.665 4.984a3.08 3.08 0 0 0 3.045 2.638 3.084 3.084 0 0 0 3.079-3.032l10.645-5.77a3.076 3.076 0 0 0 4.973-2.427 3.083 3.083 0 0 0-3.08-3.08"/><path stroke="#0059FF" stroke-width=".008" d="M30.92 14.94a3.083 3.083 0 0 0-3.08 3.08c0 .33.055.658.163.979L17.83 24.415a3.067 3.067 0 0 0-2.528-1.328 3.086 3.086 0 0 0-2.762 1.723L3.4 19.99c-.965-.507-1.688-2.096-1.611-3.544.04-.755.3-1.342.698-1.569.252-.141.555-.13.878.039l.06.032c2.422 1.275 10.347 5.45 10.682 5.605.514.24.8.335 1.678-.081l16.383-8.52c.24-.09.521-.322.521-.671 0-.485-.502-.676-.503-.676a575.958 575.958 0 0 0-3.761-1.771c-2.986-1.398-6.37-2.982-7.857-3.761-1.284-.672-2.316-.105-2.5.008l-.357.177C11.02 8.566 2.068 13 1.558 13.311c-.911.555-1.476 1.661-1.55 3.034-.113 2.178.996 4.449 2.584 5.28l9.665 4.984a3.08 3.08 0 0 0 3.045 2.638 3.084 3.084 0 0 0 3.079-3.032l10.645-5.77a3.076 3.076 0 0 0 4.973-2.427 3.083 3.083 0 0 0-3.08-3.08M15.303 25.172a.995.995 0 1 1-.002 1.99.995.995 0 0 1 .002-1.99zm15.618-6.158a.996.996 0 1 1 .001-1.992.996.996 0 0 1-.001 1.992z"/></g><defs><clipPath id="a"><path fill="#fff" d="M0 0h34v34H0z"/></clipPath></defs></svg>